<?xml version="1.0" encoding="utf-8"?>
<!-- Generator: Adobe Illustrator 24.1.0, SVG Export Plug-In . SVG Version: 6.00 Build 0)  -->
<svg version="1.1" id="Layer_1" xmlns="http://www.w3.org/2000/svg" xmlns:xlink="http://www.w3.org/1999/xlink" x="0px" y="0px"
	 viewBox="0 0 50 48" style="enable-background:new 0 0 50 48;" xml:space="preserve">
<style type="text/css">
	.st0{fill:#A93933;}
	.st1{fill:#EE4036;}
	.st2{fill:#DE7A6F;}
</style>
<g>
	<path class="st0" d="M25.8,0.5c0.5,0.6,0.9,1.3,1.1,2.1c10.9,1,19.5,10.2,19.5,21.4c0,4-1.1,7.8-3,11c0.5,0.6,0.9,1.4,1.1,2.2
		c2.5-3.8,4-8.3,4-13.2C48.6,11.3,38.4,0.9,25.8,0.5z"/>
	<path class="st1" d="M42.2,39.9c0.1-0.1,0.1-0.3,0.2-0.4c0,0,0-0.1,0-0.1c0.1-0.1,0.1-0.3,0.1-0.5c0,0,0,0,0-0.1c0-0.2,0-0.3,0-0.5
		c0-0.1,0-0.2,0-0.4c0,0,0-0.1,0-0.1c0-0.1,0-0.2-0.1-0.3c0,0,0-0.1,0-0.1c0-0.1-0.1-0.2-0.1-0.3c0,0,0,0,0,0
		c-0.2-0.4-0.4-0.8-0.7-1.1c-0.4-0.4-0.9-0.7-1.4-0.8c0,0,0,0,0,0c-0.1,0-0.2,0-0.3-0.1c0,0,0,0-0.1,0c-0.1,0-0.1,0-0.2,0
		c-0.1,0-0.2,0-0.3,0c-0.9,0-1.6,0.3-2.3,0.9h0c-3.1,3.1-7.4,5-12.1,5c-1.6,0-3.1-0.2-4.5-0.6c-0.2-0.1-0.5-0.3-0.6-0.5
		c-0.1-0.3-0.2-0.6-0.1-0.8c0.2-0.6,0.8-0.9,1.4-0.8l0,0c1.2,0.3,2.5,0.5,3.9,0.5c8.3,0,15-6.7,15-15c0-8.3-6.7-15-15-15
		c-0.8,0-1.6,0.1-2.4,0.2l0,0c-0.4,0.1-0.8,0.2-1.2,0.4c0,0,0,0,0,0c-0.1,0.1-0.2,0.1-0.2,0.2c0,0,0,0,0,0C21.1,9.9,21,10,21,10
		c0,0-0.1,0.1-0.1,0.1c0,0-0.1,0.1-0.1,0.1c-0.1,0.1-0.1,0.2-0.2,0.2c-0.1,0.1-0.1,0.2-0.2,0.3c0,0,0,0.1,0,0.1
		c-0.1,0.1-0.1,0.2-0.2,0.3c0,0,0,0,0,0c0,0.1-0.1,0.3-0.1,0.4c0,0,0,0,0,0c0,0.1-0.1,0.3-0.1,0.4c0,0,0,0,0,0v0c0,0.2,0,0.5,0,0.7
		c0.2,1.3,1.2,2.3,2.4,2.6c0,0,0,0,0,0c0.1,0,0.2,0,0.3,0.1c0,0,0,0,0.1,0c0.1,0,0.2,0,0.4,0c0.2,0,0.3,0,0.5,0l0,0
		c0.4-0.1,0.9-0.1,1.4-0.1c4.7,0,8.6,3.9,8.6,8.6c0,4.7-3.9,8.6-8.6,8.6c-0.6,0-1.1-0.5-1.1-1.1c0-0.6,0.5-1.1,1.1-1.1
		c3.5,0,6.4-2.9,6.4-6.4s-2.9-6.4-6.4-6.4s-6.4,2.9-6.4,6.4c0,1.8,0.8,3.5,2,4.6c0.4-0.6,0.9-1.1,1.5-1.5c-0.8-0.8-1.4-1.9-1.4-3.1
		c0-2.4,1.9-4.3,4.3-4.3s4.3,1.9,4.3,4.3c0,2.4-1.9,4.3-4.3,4.3c-0.1,0-0.3,0-0.4,0c0,0-0.1,0-0.1,0c-0.1,0-0.2,0-0.3,0.1
		c0,0-0.1,0-0.1,0c-0.1,0-0.2,0.1-0.3,0.1c0,0,0,0,0,0c-0.1,0-0.2,0.1-0.3,0.2c0,0,0,0,0,0c-0.1,0.1-0.2,0.1-0.3,0.2c0,0,0,0,0,0
		c-0.1,0.1-0.2,0.1-0.3,0.2c0,0,0,0,0,0c-0.2,0.2-0.4,0.4-0.5,0.6c0,0,0,0,0,0l0,0c-0.3,0.5-0.5,1.1-0.5,1.7c0,0.9,0.4,1.8,1.1,2.4
		c0,0,0,0,0,0c0,0,0.1,0.1,0.2,0.1c0,0,0.1,0,0.1,0.1c0,0,0.1,0.1,0.1,0.1c0,0,0.1,0,0.1,0.1c0,0,0.1,0.1,0.1,0.1c0,0,0.1,0,0.1,0.1
		c0,0,0.1,0,0.1,0.1c0,0,0.1,0,0.1,0.1c0,0,0.1,0,0.1,0c0.1,0,0.1,0,0.2,0c0,0,0.1,0,0.1,0c0.1,0,0.1,0,0.2,0c0,0,0.1,0,0.1,0
		c0.1,0,0.2,0,0.3,0c5.9,0,10.7-4.8,10.7-10.7c0-5.9-4.8-10.7-10.7-10.7c-0.6,0-1.1,0-1.7,0.1l0,0c-0.6,0.1-1.2-0.3-1.3-0.9
		c0-0.3,0-0.6,0.2-0.8c0.2-0.2,0.4-0.4,0.7-0.4c0.7-0.1,1.3-0.2,2-0.2c7.1,0,12.9,5.8,12.9,12.9S32.1,36.9,25,36.9
		c-1.2,0-2.3-0.2-3.3-0.4l0,0c0,0,0,0,0,0c-0.1,0-0.3-0.1-0.4-0.1c0,0,0,0,0,0c0,0,0,0,0,0c-0.1,0-0.2,0-0.3,0c0,0,0,0,0,0
		c-0.3,0-0.5,0-0.8,0.1c0,0,0,0,0,0c-0.1,0-0.2,0.1-0.3,0.1c0,0,0,0,0,0c-0.1,0-0.2,0.1-0.3,0.2c0,0,0,0,0,0c0,0,0,0-0.1,0
		c-0.3,0.2-0.6,0.4-0.8,0.7c0,0,0,0,0,0c0,0,0,0,0,0c-0.3,0.4-0.5,0.8-0.7,1.3c-0.1,0.3-0.1,0.5-0.1,0.8v0c0,0,0,0,0,0
		c0,0.3,0,0.5,0.1,0.8c0,0,0,0,0,0.1c0,0.1,0.1,0.2,0.1,0.3c0,0,0,0.1,0,0.1c0.1,0.1,0.1,0.2,0.2,0.3c0,0,0,0,0,0
		c0,0.1,0.1,0.2,0.1,0.2c0,0,0.1,0.1,0.1,0.1c0,0,0.1,0.1,0.1,0.1c0,0,0.1,0.1,0.1,0.1c0,0,0,0,0.1,0.1c0.1,0.1,0.1,0.1,0.2,0.1
		c0,0,0,0,0,0c0.1,0.1,0.1,0.1,0.2,0.1c0,0,0,0,0,0c0.1,0,0.1,0.1,0.2,0.1c0,0,0,0,0,0c0.1,0,0.2,0.1,0.3,0.1c0,0,0,0,0,0
		c0.1,0.1,0.3,0.1,0.4,0.2l0,0c1.6,0.4,3.3,0.7,5,0.7c5.3,0,10.1-2.2,13.6-5.7l0,0c0.4-0.4,1.1-0.4,1.6,0c0.2,0.2,0.3,0.5,0.3,0.8
		c0,0.2-0.1,0.5-0.2,0.6c-3.9,4-9.3,6.4-15.3,6.4C13.2,45.5,3.5,35.8,3.5,24c0-10.7,7.9-19.6,18.2-21.2c0.6-0.1,1.1,0.3,1.2,0.9
		c0,0.3,0,0.6-0.2,0.8C22.5,4.8,22.3,4.9,22,5l0,0C12.8,6.4,5.7,14.4,5.7,24c0,0.2,0,0.3,0,0.5c0,0,0,0.1,0,0.1
		c0,0.2,0.1,0.3,0.1,0.4c0,0,0,0,0,0.1c0.1,0.3,0.3,0.6,0.5,0.8c0,0,0,0,0,0c0.1,0.1,0.2,0.2,0.3,0.4c0,0,0,0,0,0
		c0.6,0.5,1.3,0.8,2.2,0.8c0.8,0,1.5-0.3,2.1-0.8c0,0,0,0,0,0c0.2-0.2,0.4-0.4,0.6-0.7c0,0,0,0,0,0c0.1-0.1,0.1-0.2,0.2-0.3
		c0,0,0,0,0-0.1c0.1-0.1,0.1-0.3,0.1-0.4c0,0,0,0,0-0.1c0-0.1,0.1-0.2,0.1-0.3c0,0,0-0.1,0-0.1c0-0.1,0-0.3,0-0.4
		c0-3.6,1.5-6.8,3.8-9.2c0.4-0.4,1.1-0.4,1.5,0c0.4,0.4,0.4,1.1,0,1.6l0,0c-1.9,1.9-3.1,4.6-3.1,7.5c0,2.9,1.2,5.6,3.1,7.5l0,0
		c0.2,0.2,0.3,0.5,0.3,0.8s-0.1,0.6-0.3,0.8c-0.4,0.4-1,0.4-1.5,0.1c-0.8-0.8-1.6-1.7-2.1-2.8l0,0c-0.4-0.7-1.1-1.3-1.9-1.5
		c-0.1,0-0.2-0.1-0.4-0.1c0,0-0.1,0-0.1,0c-0.1,0-0.2,0-0.3,0c0,0,0,0-0.1,0c0,0,0,0,0,0c-0.5,0-1.1,0.1-1.5,0.4
		c-0.2,0.1-0.5,0.3-0.7,0.5c0,0,0,0,0,0c0,0,0,0,0,0c-0.2,0.2-0.4,0.4-0.5,0.6c0,0,0,0,0,0.1c-0.1,0.1-0.1,0.2-0.1,0.3
		c0,0,0,0.1,0,0.1c0,0.1-0.1,0.2-0.1,0.3c0,0,0,0,0,0c0,0.1,0,0.2-0.1,0.3c0,0,0,0.1,0,0.1c0,0.1,0,0.1,0,0.2c0,0,0,0.1,0,0.1
		c0,0,0,0.1,0,0.1c0,0.1,0,0.1,0,0.2c0,0,0,0.1,0,0.1c0,0.1,0,0.1,0,0.2c0,0,0,0.1,0,0.1c0,0.1,0,0.1,0,0.2c0,0,0,0,0,0.1
		c0,0.1,0,0.1,0.1,0.2c0,0,0,0,0,0c0.1,0.2,0.1,0.3,0.2,0.5l0,0c1.8,3,4.3,5.6,7.4,7.3c-0.2-0.8-0.2-1.6-0.1-2.5
		c-2.3-1.5-4.2-3.5-5.6-5.9c-0.2-0.5,0-1.1,0.4-1.4c0.5-0.3,1.2-0.1,1.5,0.4l0,0c0.7,1.1,1.5,2.2,2.4,3.1l0,0
		c0.1,0.1,0.1,0.1,0.2,0.2c0,0,0,0,0,0c0,0,0,0,0,0c0.1,0,0.1,0.1,0.2,0.1c0,0,0,0,0.1,0.1c0,0,0.1,0.1,0.2,0.1c0,0,0.1,0,0.1,0.1
		c0,0,0.1,0,0.1,0.1c0.1,0,0.1,0.1,0.2,0.1c0,0,0.1,0,0.1,0c0.1,0,0.1,0.1,0.2,0.1c0,0,0,0,0.1,0c0.1,0,0.2,0.1,0.3,0.1c0,0,0,0,0,0
		c0.2,0,0.4,0.1,0.6,0.1c0,0,0,0,0.1,0c0.1,0,0.2,0,0.3,0c0,0,0.1,0,0.1,0c0.1,0,0.2,0,0.3-0.1c0,0,0.1,0,0.1,0
		c0.1,0,0.2-0.1,0.4-0.1c0,0,0,0,0.1,0c0.1-0.1,0.2-0.1,0.3-0.2c0,0,0,0,0,0c0,0,0,0,0,0c0.2-0.1,0.4-0.3,0.6-0.5
		c0.4-0.4,0.6-0.8,0.8-1.3c0,0,0,0,0,0c0,0,0,0,0,0c0-0.1,0.1-0.2,0.1-0.4c0,0,0-0.1,0-0.1c0-0.1,0-0.2,0-0.4c0,0,0,0,0-0.1
		c0-0.6-0.2-1.2-0.5-1.7c0,0,0,0,0,0c0-0.1-0.1-0.1-0.2-0.2c0,0,0,0,0,0c-0.1-0.1-0.1-0.2-0.2-0.2c0,0,0,0,0,0v0c0,0,0,0,0,0l0,0
		c-1.6-1.6-2.5-3.7-2.5-6.1c0-2.4,1-4.5,2.5-6.1v0c0,0,0,0,0,0c0,0,0,0,0,0c0,0,0,0,0,0c0.1-0.1,0.2-0.2,0.3-0.3c0,0,0-0.1,0.1-0.1
		c0.1-0.1,0.1-0.2,0.2-0.3c0,0,0,0,0-0.1c0.1-0.1,0.1-0.2,0.2-0.4c0,0,0,0,0-0.1c0-0.1,0.1-0.2,0.1-0.3c0,0,0-0.1,0-0.1
		c0.1-0.3,0.1-0.5,0.1-0.8c0,0,0,0,0-0.1c0-0.1,0-0.2,0-0.4c0,0,0,0,0,0c0-0.1-0.1-0.3-0.1-0.4c0,0,0,0,0,0v0
		c-0.1-0.5-0.4-0.9-0.8-1.3c-0.3-0.3-0.6-0.5-1-0.7c0,0,0,0,0,0c-0.1-0.1-0.3-0.1-0.4-0.1c0,0,0,0,0,0c-0.1,0-0.3-0.1-0.4-0.1
		c0,0-0.1,0-0.1,0c-0.2,0-0.3,0-0.5,0c-0.1,0-0.1,0-0.2,0c-0.1,0-0.1,0-0.2,0c0,0-0.1,0-0.1,0c-0.1,0-0.2,0-0.2,0.1c0,0,0,0,0,0
		c-0.1,0-0.2,0.1-0.3,0.1c0,0,0,0,0,0c-0.4,0.2-0.8,0.4-1.1,0.7l0,0C11.7,16.1,10,19.9,10,24c0,0.6-0.5,1.1-1.1,1.1
		c-0.6,0-1.1-0.5-1.1-1.1c0-8.6,6.3-15.7,14.5-17l0,0c0,0,0,0,0,0c0,0,0,0,0,0c0,0,0,0,0,0c0.4-0.1,0.8-0.2,1.2-0.4c0,0,0,0,0,0
		c0.1-0.1,0.2-0.1,0.2-0.2c0,0,0,0,0,0c0.1-0.1,0.1-0.1,0.2-0.2c0,0,0.1-0.1,0.1-0.1c0,0,0.1-0.1,0.1-0.1c0.1-0.1,0.1-0.2,0.2-0.2
		c0.1-0.1,0.1-0.2,0.2-0.2c0-0.1,0.1-0.1,0.1-0.2c0,0,0,0,0-0.1c0-0.1,0.1-0.2,0.1-0.2c0,0,0,0,0,0c0-0.1,0.1-0.2,0.1-0.3
		c0,0,0,0,0,0l0,0C25,4.3,25,3.8,25,3.4c0-0.3-0.1-0.6-0.3-0.9c0,0,0,0,0,0c0,0,0,0,0,0c-0.1-0.1-0.1-0.2-0.2-0.4c0,0,0,0,0-0.1
		c-0.1-0.1-0.1-0.2-0.2-0.3c0,0,0,0,0-0.1c-0.1-0.1-0.2-0.2-0.3-0.3c0,0,0,0,0,0c-0.1-0.1-0.2-0.1-0.3-0.2c0,0-0.1,0-0.1-0.1
		C23.4,1.1,23.3,1,23.1,1c0,0,0,0,0,0c-0.1,0-0.2-0.1-0.3-0.1c0,0-0.1,0-0.1,0c-0.1,0-0.3-0.1-0.4-0.1c0,0,0,0,0,0
		c-0.1,0-0.3,0-0.4,0c0,0,0,0-0.1,0c0,0,0,0-0.1,0c-0.1,0-0.3,0-0.4,0l0,0C10.1,2.5,1.5,12.3,1.5,24C1.5,37,12,47.5,25,47.5
		c6.5,0,12.4-2.6,16.6-6.9l0,0c0.1-0.1,0.2-0.2,0.2-0.2v0c0,0,0,0,0,0C42,40.3,42.1,40.1,42.2,39.9C42.2,40,42.2,39.9,42.2,39.9z"/>
	<path class="st2" d="M42.2,24c0,3.4-1,6.5-2.6,9.1c0.7,0,1.5,0.2,2.1,0.5c1.7-2.8,2.6-6.1,2.6-9.6C44.3,14,36.7,5.8,27,4.8
		c-0.1,0.7-0.4,1.4-0.8,2C35.1,7.4,42.2,14.9,42.2,24z"/>
</g>
</svg>
