<svg id="Capa_1" data-name="Capa 1" xmlns="http://www.w3.org/2000/svg" viewBox="0 0 356.59 79.58"><defs><style>.cls-1{fill:#fff;}</style></defs><path class="cls-1" d="M349.37,64.88a7.34,7.34,0,0,1,5.06,12.54,7.07,7.07,0,0,1-5.18,2.16,7.21,7.21,0,0,1-5.19-2.16,7,7,0,0,1-2.16-5.19,6.79,6.79,0,0,1,2.16-5.18A7.32,7.32,0,0,1,349.37,64.88Z"/><path class="cls-1" d="M95.76,44.38,83.28,52.54a17,17,0,0,1-4.85,9.68,16.23,16.23,0,0,1-12.29,5.2,16.68,16.68,0,0,1-12.37-5.11,17.23,17.23,0,0,1-5.34-12.84,17,17,0,0,1,5.34-12.73,17.22,17.22,0,0,1,22.74-1.42L56.25,48.89c0,.22,0,.44,0,.67h0a9.74,9.74,0,0,0,5.49,8.77l27.36-17.9A5.78,5.78,0,0,0,90.6,32.2a31.9,31.9,0,0,0-3.11-3.64,28.5,28.5,0,0,0-21.11-9,30.25,30.25,0,0,0-21.61,8.64,28.49,28.49,0,0,0-6.62,9.72,30.38,30.38,0,0,0-2.36,11.7,29,29,0,0,0,8.84,21.16,29.53,29.53,0,0,0,21.51,8.83A29,29,0,0,0,87.43,70.8,29.08,29.08,0,0,0,96.2,49.65,32.49,32.49,0,0,0,95.76,44.38Z"/><path class="cls-1" d="M150.68,28.37a29.83,29.83,0,0,0-9.58-6.5,28.5,28.5,0,0,0-11.22-2.34,25.17,25.17,0,0,0-11,2.52V34.92c.25-.18.5-.35.74-.49A17.81,17.81,0,0,1,129,31.7a16.75,16.75,0,0,1,12.43,5,17.29,17.29,0,0,1,5.1,12.85,17.24,17.24,0,0,1-4.72,12.23,16.46,16.46,0,0,1-12.69,5.6,16.94,16.94,0,0,1-13.55-6.52c-2.92-3.43-4.4-8.68-4.4-15.6V8.06a5.78,5.78,0,0,0-4.07-5.52L98.87,0V47.32c0,12.61,4.83,22,14.37,27.91a29.63,29.63,0,0,0,15.62,4.35,29.29,29.29,0,0,0,22.2-9.4,29.62,29.62,0,0,0,8.15-20.89A28.7,28.7,0,0,0,150.68,28.37Z"/><path class="cls-1" d="M150.68,28.37a29.83,29.83,0,0,0-9.58-6.5,28.5,28.5,0,0,0-11.22-2.34,25.17,25.17,0,0,0-11,2.52V34.92c.25-.18.5-.35.74-.49A17.81,17.81,0,0,1,129,31.7a16.75,16.75,0,0,1,12.43,5,17.29,17.29,0,0,1,5.1,12.85,17.24,17.24,0,0,1-4.72,12.23,16.46,16.46,0,0,1-12.69,5.6,16.94,16.94,0,0,1-13.55-6.52c-2.92-3.43-4.4-8.68-4.4-15.6V8.06a5.78,5.78,0,0,0-4.07-5.52L98.87,0V47.32c0,12.61,4.83,22,14.37,27.9a30.14,30.14,0,0,0,46-25.93A28.7,28.7,0,0,0,150.68,28.37Z"/><path class="cls-1" d="M309.82,30.63V19.53H299.61V8.06a5.78,5.78,0,0,0-4.07-5.52L287.32,0V57.93c0,6,1,10.61,2.86,13.81s5.18,5.59,9.59,6.78a42.84,42.84,0,0,0,10.88,1.06h6.59V68.31h-6.06c-3.53,0-6.14-.36-7.75-1.08a5.44,5.44,0,0,1-3-3.42,17.87,17.87,0,0,1-.8-6.24V30.63Z"/><path class="cls-1" d="M33.12,31.93V19.67c-1-.09-2.06-.14-3.13-.14a29.61,29.61,0,0,0-15.61,4.36C4.83,29.8,0,39.18,0,51.79V79.58L8.21,77a5.78,5.78,0,0,0,4.07-5.52V53.81c0-6.91,1.48-12.16,4.4-15.6A17,17,0,0,1,30.23,31.7,19.33,19.33,0,0,1,33.12,31.93Z"/><path class="cls-1" d="M196.64,32.34a17.83,17.83,0,0,1,8.5,5.22l7.4-1.37-1.23-9.54A29.76,29.76,0,0,0,204,22.07l1.12,8.7Z"/><path class="cls-1" d="M247.32,73.42l-1.07-7.7a18,18,0,0,1-7.72-7l1.3,9.32-8.28,1.59a30.17,30.17,0,0,1-2.34-2.94,30.29,30.29,0,0,0,10.62,9.4c-.56-.3-1.1-.61-1.64-.93Z"/><path class="cls-1" d="M211.31,26.65l1.23,9.54-7.43,1.37a17.89,17.89,0,1,1-8.5-5.22l8.5-1.57L204,22.07a30.06,30.06,0,1,0,7.32,4.58Z"/><path class="cls-1" d="M253.85,19.53a30,30,0,0,0-22.3,50.12l8.28-1.59-1.31-9.37a17.91,17.91,0,1,1,7.72,7l1.08,7.72-9.13,1.76a30,30,0,1,0,15.66-55.65Z"/></svg>