<?xml version="1.0" encoding="UTF-8"?>
<svg width="100px" height="63px" viewBox="0 0 100 63" version="1.1" xmlns="http://www.w3.org/2000/svg" xmlns:xlink="http://www.w3.org/1999/xlink">
    <!-- Generator: Sketch 48 (47235) - http://www.bohemiancoding.com/sketch -->
    <title>图灵Logo</title>
    <desc>Created with Sketch.</desc>
    <defs></defs>
    <g id="Web-网站" stroke="none" stroke-width="1" fill="none" fill-rule="evenodd" transform="translate(-1009.000000, -5896.000000)">
        <g id="图灵Logo" transform="translate(1009.000000, 5896.000000)" fill-rule="nonzero">
            <rect id="Rectangle-path" fill="#A3B1BF" x="0.189814815" y="0.224" width="99.3657407" height="46.3913333"></rect>
            <polygon id="Shape" fill="#FFFFFF" points="20.9583333 14.1633333 20.9583333 18.69 17.4027778 18.69 17.4027778 36.7733333 11.4074074 36.7733333 11.4074074 18.6853333 7.86574074 18.6853333 7.86574074 14.1586667"></polygon>
            <path d="M35.9398148,14.1633333 L35.9398148,29.274 C35.9675438,30.4805685 35.9103013,31.6875996 35.7685185,32.886 C35.6128097,33.6716746 35.266016,34.4060882 34.7592593,35.0233333 C34.1825496,35.7669201 33.4182627,36.3406916 32.5462963,36.6846667 C31.5126299,37.0830639 30.4119173,37.2748521 29.3055556,37.2493333 C28.058677,37.2733234 26.8197039,37.0448108 25.662037,36.5773333 C24.7322245,36.2227431 23.9159161,35.6193279 23.3009259,34.832 C22.8008621,34.1706111 22.481602,33.3886027 22.375,32.564 C22.279321,31.7675556 22.2314815,30.0937778 22.2314815,27.5426667 L22.2314815,14.1633333 L28.2268519,14.1633333 L28.2268519,31.1173333 C28.1893546,31.7519246 28.2439422,32.388635 28.3888889,33.0073333 C28.4933495,33.2782888 28.7638881,33.4461059 29.0509259,33.418 C29.3728773,33.4534069 29.6763639,33.2597901 29.7824074,32.9513333 C29.928955,32.2475252 29.9834306,31.527402 29.9444444,30.8093333 L29.9444444,14.1493333 L35.9398148,14.1633333 Z" id="Shape" fill="#FFFFFF"></path>
            <path d="M38.2592593,14.1633333 L42.5,14.1633333 C45.3271605,14.1633333 47.2407407,14.2706667 48.2407407,14.4853333 C49.2363181,14.6949811 50.1134514,15.2833004 50.6898148,16.128 C51.3070988,17.0084444 51.6157407,18.4084444 51.6157407,20.328 C51.6157407,22.0888889 51.3919753,23.2711111 50.9444444,23.8746667 C50.4969136,24.4782222 49.6188272,24.8406667 48.3101852,24.962 C49.4953704,25.2513333 50.2916667,25.6371111 50.6990741,26.1193333 C51.0488971,26.5007225 51.3084775,26.957027 51.4583333,27.454 C51.5980271,28.5634058 51.6475746,29.682461 51.6064815,30.8 L51.6064815,36.764 L46.0509259,36.764 L46.0509259,29.2506667 C46.0509259,28.0404444 45.9537037,27.2906667 45.7592593,27.0013333 C45.5648148,26.712 45.0555556,26.5673333 44.2314815,26.5673333 L44.2314815,36.764 L38.2592593,36.764 L38.2592593,14.1633333 Z M44.25,18.032 L44.25,23.058 C44.7378472,23.0991801 45.2276067,23.0056072 45.6666667,22.7873333 C45.9382716,22.6068889 46.0740741,22.0173333 46.0740741,21.0186667 L46.0740741,19.7773333 C46.0740741,19.0617778 45.9429012,18.5951111 45.6805556,18.3773333 C45.254855,18.10558 44.751643,17.9841056 44.25,18.032 Z" id="Shape" fill="#FFFFFF"></path>
            <polygon id="Shape" fill="#FFFFFF" points="59.9444444 14.1633333 59.9444444 36.7733333 53.9537037 36.7733333 53.9537037 14.1633333"></polygon>
            <polygon id="Shape" fill="#FFFFFF" points="75.7222222 14.1633333 75.7222222 36.7733333 70.4953704 36.7733333 67.3796296 26.5066667 67.3796296 36.7733333 62.3472222 36.7733333 62.3472222 14.1633333 67.3564815 14.1633333 70.712963 24.3506667 70.712963 14.1633333"></polygon>
            <path d="M91.875,22.484 L85.8842593,22.484 L85.8842593,20.4306667 C85.9263287,19.6162076 85.8687975,18.7996253 85.712963,17.9993333 C85.555463,17.7209726 85.267304,17.543522 84.9497079,17.5293147 C84.6321118,17.5151074 84.3294913,17.6661303 84.1481481,17.9293333 C83.9660503,18.6307394 83.8988073,19.3574133 83.9490741,20.0806667 L83.9490741,30.9306667 C83.9087642,31.6044377 83.9759767,32.2803637 84.1481481,32.9326667 C84.2838377,33.2469601 84.6063475,33.4359659 84.9444444,33.3993333 C85.3272401,33.4325455 85.6871308,33.2114826 85.8333333,32.8533333 C86.0326628,32.1645236 86.1125392,31.4461999 86.0694444,30.73 L86.0694444,28.084 L84.8472222,28.084 L84.8472222,24.6493333 L91.8611111,24.6493333 L91.8611111,36.7826667 L88.087963,36.7826667 L87.5324074,35.1633333 C87.1672797,35.8186574 86.6329434,36.3621063 85.9861111,36.736 C85.3099162,37.0980607 84.5524675,37.2780879 83.787037,37.2586667 C82.800561,37.2634708 81.8289639,37.01622 80.962963,36.54 C80.1576024,36.1256236 79.4695269,35.512319 78.962963,34.7573333 C78.5203385,34.0869109 78.2280563,33.327268 78.1064815,32.5313333 C77.9715377,31.3698626 77.9143095,30.2005527 77.9351852,29.0313333 L77.9351852,22.3066667 C77.8858857,20.7303079 78.0054041,19.1531871 78.2916667,17.6026667 C78.529321,16.6257778 79.2098765,15.7297778 80.3333333,14.9146667 C81.6214121,14.050778 83.1488362,13.6225545 84.6944444,13.692 C86.220186,13.6330011 87.7324874,13.9995676 89.0648148,14.7513333 C90.0857322,15.3023062 90.8857333,16.1928104 91.3287037,17.2713333 C91.7351347,18.6447986 91.9134659,20.0765538 91.8564815,21.5086667 L91.875,22.484 Z" id="Shape" fill="#FFFFFF"></path>
            <polygon id="Shape" fill="#FFFFFF" points="47.5648148 9.26333333 53.4027778 9.26333333 56.7175926 13.0993333 50.875 13.0993333"></polygon>
            <polygon id="Shape" fill="#FFFFFF" points="66.3611111 9.26333333 60.5231481 9.26333333 57.2083333 13.0993333 63.0509259 13.0993333"></polygon>
            <polygon id="Shape" fill="#FFFFFF" points="53.4027778 3.56066667 53.4027778 8.722 56.7175926 12.4506667 56.7175926 6.972"></polygon>
            <polygon id="Shape" fill="#FFFFFF" points="60.5231481 3.56066667 60.5231481 8.722 57.2083333 12.4506667 57.2083333 6.972"></polygon>
            <path d="M2.11574074,48.6173333 L15.3425926,48.6173333 L15.3425926,60.4893333 L13.1064815,62.3093333 L2.11574074,62.3093333 L2.11574074,48.6173333 Z M13.087963,50.1806667 L4.36111111,50.1806667 L4.36111111,60.7506667 L13.087963,60.7506667 L13.087963,50.1806667 Z M10.0138889,54.5813333 L13,56.3173333 L9.80555556,56.3173333 L8.53703704,55.5706667 L7.46296296,56.294 L4.43518519,56.294 L6.9212963,54.6233333 L4.87037037,53.4286667 L7.99537037,53.4286667 L8.37037037,53.648 L9.9212963,52.6026667 L7.20833333,52.6026667 L6.7962963,53.0693333 L4.42592593,53.0693333 L6.34259259,50.6986667 L8.70833333,50.6986667 L8.16203704,51.366 L12.7638889,51.366 L12.7638889,52.7333333 L10.0138889,54.5813333 Z M8.5462963,58.394 L12.4398148,60.284 L9.01388889,60.284 L5.21759259,58.3893333 L8.5462963,58.394 Z M8.80092593,56.6206667 L12.4259259,58.3193333 L9,58.3193333 L5.47222222,56.6206667 L8.80092593,56.6206667 Z" id="Shape" fill="#A3B1BF"></path>
            <path d="M34.6666667,57.8853333 L34.6666667,55.314 L29.4351852,55.314 L29.4351852,53.7506667 L40.2962963,53.7506667 L40.2962963,50.1713333 L29.3564815,50.1713333 L29.3564815,48.6173333 L42.6666667,48.6173333 L42.6666667,53.564 L40.2962963,55.314 L37.0972222,55.314 L37.0972222,57.9506667 L43,62.3793333 L39.3240741,62.3793333 L35.8194444,59.892 L32.6574074,62.4026667 L29.0972222,62.4026667 L34.6666667,57.8853333 Z M39.3657407,52.7286667 L29.4907407,52.7286667 L29.4907407,51.17 L40.0740741,51.17 L39.3657407,52.7286667 Z M29.6759259,55.9953333 L32.1388889,55.9953333 L33.5277778,58.38 L31.0648148,58.38 L29.6759259,55.9953333 Z M42.5972222,55.9953333 L41.2083333,58.38 L38.7407407,58.38 L40.1296296,55.9953333 L42.5972222,55.9953333 Z" id="Shape" fill="#A3B1BF"></path>
            <path d="M56.3935185,57.0966667 L58.9583333,54.3666667 L56.7638889,54.3666667 L56.7638889,52.8313333 L58.8518519,52.8313333 L58.8518519,51.2213333 L56.7916667,51.2213333 L56.7916667,49.644 L58.8518519,49.644 L58.8518519,48.538 L61.0138889,48.538 L61.0138889,49.644 L63.1944444,49.644 L62.462963,51.2166667 L61.0138889,51.2166667 L61.0138889,52.3226667 L61.3425926,51.9306667 L63.4768519,51.9306667 L62.6851852,52.8173333 L63.4675926,52.8173333 L62.7361111,54.3526667 L61.2824074,54.3526667 L60.3564815,55.216 L62.8333333,55.216 L62.8333333,56.812 L62.3703704,57.7733333 L63.4074074,57.7733333 L62.8101852,59.3506667 L62.3472222,59.3506667 L62.3472222,60.886 L60.6851852,62.398 L57.3564815,62.398 L57.3564815,60.886 L60.2268519,60.886 L60.2268519,59.3506667 L56.8009259,59.3506667 L56.8009259,57.7873333 L60.2453704,57.7873333 L60.7083333,56.7653333 L58.7222222,56.7653333 L58.3888889,57.0873333 L56.3935185,57.0966667 Z M67.7685185,57.456 L70.1388889,62.398 L67.7962963,62.398 L66.6574074,60.0226667 L65.5925926,62.468 L63.25,62.468 L65.4027778,57.4606667 L63.3611111,53.1953333 L65.7037037,53.1953333 L66.5231481,54.894 L67.6851852,52.2013333 L70,52.2013333 L67.7685185,57.456 Z M66.5138889,49.434 L70.1018519,49.434 L69.3240741,51.072 L66.125,51.072 L65.6990741,52.5886667 L63.5509259,52.5886667 L64.5046296,48.4913333 L66.8564815,48.4913333 L66.5138889,49.434 Z" id="Shape" fill="#A3B1BF"></path>
            <path d="M94.4537037,51.6693333 L94.1481481,50.834 L96.462963,50.834 L97.2407407,53.2466667 L94.9722222,53.2466667 L94.6435185,52.2526667 L94.1805556,53.2466667 L84.3240741,53.2466667 L84.3240741,51.6693333 L85.0277778,50.6146667 L83.7731481,50.6146667 L83.7731481,49.126 L89.0138889,49.126 C89.1454233,48.9027996 89.3006575,48.6946862 89.4768519,48.5053333 C89.7117073,48.2800015 90.0349768,48.1736697 90.3564815,48.216 C90.6719885,48.2262263 90.9841526,48.2844387 91.2824074,48.3886667 C91.4830724,48.4485721 91.6576858,48.5752338 91.7777778,48.748 L92.0231481,49.126 L97.5787037,49.126 L96.8842593,50.6146667 L87.8564815,50.6146667 L87.162037,51.6693333 L94.4537037,51.6693333 Z M84.0694444,53.872 L96.9212963,53.872 L96.8842593,60.4426667 L94.7222222,62.398 L89.7037037,62.398 L89.7037037,60.8626667 L94.4259259,60.8626667 L94.4259259,55.3326667 L86.5555556,55.3326667 L86.5555556,56.266 L94.1990741,56.266 L93.4907407,57.666 L86.5462963,57.666 L86.5462963,58.6413333 L94.1990741,58.6413333 L93.4907407,60.0693333 L86.5462963,60.0693333 L86.5462963,61.4226667 L84.0555556,62.5426667 L84.0694444,53.872 Z" id="Shape" fill="#A3B1BF"></path>
            <rect id="Rectangle-path" fill="#FFFFFF" x="7.51388889" y="39.662" width="5.86574074" height="1.95533333"></rect>
            <rect id="Rectangle-path" fill="#FFFFFF" x="15.1990741" y="39.662" width="5.74537037" height="1.95533333"></rect>
            <rect id="Rectangle-path" fill="#FFFFFF" x="38.087963" y="39.662" width="6.16666667" height="1.95533333"></rect>
            <rect id="Rectangle-path" fill="#FFFFFF" x="46.2083333" y="39.662" width="5.80555556" height="1.95533333"></rect>
            <rect id="Rectangle-path" fill="#FFFFFF" x="62.0185185" y="39.662" width="5.18981481" height="1.95533333"></rect>
            <rect id="Rectangle-path" fill="#FFFFFF" x="70.9953704" y="39.662" width="5.36111111" height="1.95533333"></rect>
            <rect id="Rectangle-path" fill="#FFFFFF" x="78.1944444" y="39.662" width="8.08796296" height="1.95533333"></rect>
            <rect id="Rectangle-path" fill="#FFFFFF" x="88.2175926" y="39.662" width="3.43981481" height="1.95533333"></rect>
            <rect id="Rectangle-path" fill="#FFFFFF" x="53.8148148" y="39.662" width="2.43518519" height="1.95533333"></rect>
            <rect id="Rectangle-path" fill="#FFFFFF" x="58.1296296" y="39.662" width="1.91666667" height="1.95533333"></rect>
            <rect id="Rectangle-path" fill="#FFFFFF" x="24.712963" y="39.662" width="3.86111111" height="1.95533333"></rect>
            <rect id="Rectangle-path" fill="#FFFFFF" x="30.4537037" y="39.662" width="3.86111111" height="1.95533333"></rect>
        </g>
    </g>
</svg>