<?xml version="1.0" encoding="UTF-8"?>
<svg width="108px" height="44px" viewBox="0 0 108 44" version="1.1" xmlns="http://www.w3.org/2000/svg" xmlns:xlink="http://www.w3.org/1999/xlink">
    <!-- Generator: Sketch 47.1 (45422) - http://www.bohemiancoding.com/sketch -->
    <title>天猫精灵</title>
    <desc>Created with Sketch.</desc>
    <defs></defs>
    <g id="Page-1" stroke="none" stroke-width="1" fill="none" fill-rule="evenodd">
        <g id="Web" transform="translate(-986.000000, -6100.000000)" stroke-width="0.75" stroke="#A3B1BF" fill="#A3B1BF">
            <g id="特别鸣谢" transform="translate(0.000000, 5835.000000)">
                <g id="天猫精灵" transform="translate(987.000000, 266.000000)">
                    <g id="Group-23">
                        <path d="M37.5617218,16.7133185 L37.5617218,19.5678568 C37.5617218,20.8999838 38.6762305,21.9842098 40.0459144,21.9842098 L43.1740546,21.9842098 L43.1740546,16.7133185 L37.5617218,16.7133185 Z M37.5617218,15.2780811 L43.1740546,15.2780811 L43.1740546,10.0799255 L37.5617218,10.0799255 L37.5617218,15.2780811 Z M44.6495664,16.7133185 L44.6495664,21.9842098 L47.7775685,21.9842098 C49.1471142,21.9842098 50.2616229,20.8999838 50.2616229,19.5678568 L50.2616229,16.7133185 L44.6495664,16.7133185 Z M44.6495664,15.2780811 L50.2617611,15.2780811 L50.2617611,10.0799255 L44.6495664,10.0799255 L44.6495664,15.2780811 Z M36.08621,19.5678568 L36.08621,8.64455189 L51.7371347,8.64455189 L51.7371347,19.5678568 C51.7371347,21.6920408 49.9608561,23.4195834 47.7775685,23.4195834 L40.0459144,23.4195834 C37.8626267,23.4195834 36.08621,21.6920408 36.08621,19.5678568 Z M49.0700228,2.77788109 L49.0700228,0.212923737 L47.594511,0.212923737 L47.594511,2.77788109 L40.2625439,2.77788109 L40.2625439,0.212923737 L38.7868939,0.212923737 L38.7868939,2.77788109 L35.6892863,2.77788109 L35.6892863,4.2132547 L38.7868939,4.2132547 L38.7868939,6.77834826 L40.2625439,6.77834826 L40.2625439,4.2132547 L47.594511,4.2132547 L47.594511,6.77834826 L49.0700228,6.77834826 L49.0700228,4.2132547 L52.1674923,4.2132547 L52.1674923,2.77788109 L49.0700228,2.77788109 Z M28.7973477,1.2359918 L26.992747,1.2359918 L26.992747,2.67136541 L28.7973477,2.67136541 C30.5092453,2.67136541 31.9213432,3.94247061 32.0892034,5.56499581 L27.6891941,8.73363278 L28.5671789,9.88705314 L32.1060585,7.33857712 L32.1060585,11.7424962 L27.6891941,14.923392 L28.5671789,16.0769486 L32.1060585,13.5282002 L32.1060585,16.2816712 C32.1060585,18.3833807 31.0627003,20.3750331 29.3150202,21.6107239 L27.9467179,22.578491 L28.8146172,23.7391304 L30.1826432,22.7712271 C32.3109446,21.2673402 33.5817084,18.841044 33.5817084,16.2816712 L33.5817084,5.88971878 C33.5817084,3.32380796 31.4354467,1.2359918 28.7973477,1.2359918 Z M12.9132148,8.16877281 C12.9132148,8.67424552 12.9431948,9.17413366 12.9954179,9.66843721 L24.2986947,9.66843721 L24.2986947,11.1038108 L13.2204749,11.1038108 C14.3528059,16.4759057 18.5353567,20.880642 24.1608144,22.294086 L23.7920747,23.6831484 C18.1229595,22.2592164 13.7870549,18.0696907 12.1493473,12.831081 C10.5116398,18.0696907 6.17559701,22.2592164 0.506481849,23.6831484 L0.13746575,22.294086 C5.76319976,20.880642 9.94588879,16.4759057 11.0782197,11.1038108 L0,11.1038108 L0,9.66843721 L11.3032767,9.66843721 C11.3554999,9.17413366 11.3854799,8.67424552 11.3854799,8.16877281 L11.3854799,2.67136541 L1.12321261,2.67136541 L1.12321261,1.2359918 L23.1753439,1.2359918 L23.1753439,2.67136541 L12.9132148,2.67136541 L12.9132148,8.16877281 Z M104.637019,1.85843512 C105.289387,2.47728252 105.695073,3.33963969 105.694799,4.28542024 L105.694799,6.24269247 C105.695073,7.18833781 105.289387,8.05069497 104.637019,8.66967758 C103.98575,9.28960665 103.078453,9.67522011 102.083478,9.67494969 L83.5692403,9.67494969 L83.5692403,8.31272824 L102.083478,8.31272824 C102.687197,8.31232262 103.22715,8.08206325 103.623491,7.70645519 C104.018732,7.32963026 104.261155,6.81651558 104.261429,6.24269247 L104.261429,5.98823085 L83.5799597,5.98823085 L83.5799597,4.62614461 L104.261429,4.62614461 L104.261429,4.28542024 C104.261155,3.71159713 104.018732,3.19848245 103.623491,2.82165751 C103.22715,2.44604946 102.687197,2.21579009 102.083478,2.21551967 L83.5692403,2.21551967 L83.5692403,0.853163013 L102.083478,0.853163013 C103.078453,0.852892597 103.98575,1.23837085 104.637019,1.85843512 Z M62.5694884,21.6165277 L62.5694884,11.4386039 L64.0201735,11.4386039 L64.0201735,21.6165277 L62.5694884,21.6165277 Z M55.7390651,21.6165277 L55.7390651,11.4386039 L57.1897501,11.4386039 L57.1897501,21.6165277 L55.7390651,21.6165277 Z M79.9669898,8.28676829 L79.9669898,9.69496049 L66.5798987,9.69496049 L66.5798987,8.28676829 L72.4705926,8.28676829 L72.4705926,6.20875524 L66.5798987,6.20875524 L66.5798987,4.80056304 L72.4705926,4.80056304 L72.4705926,2.5955896 L66.5798987,2.5955896 L66.5798987,1.1873974 L72.4705926,1.1873974 L72.4705926,0.0177122591 L73.9212777,0.0177122591 L73.9212777,1.1873974 L79.9669898,1.1873974 L79.9669898,2.5955896 L73.9212777,2.5955896 L73.9212777,4.80056304 L79.9669898,4.80056304 L79.9669898,6.20875524 L73.9212777,6.20875524 L73.9212777,8.28676829 L79.9669898,8.28676829 Z M62.7508928,6.499047 L62.7508928,0.017577051 L64.2015778,0.017577051 L64.2015778,6.499047 L62.7508928,6.499047 Z M55.7390651,6.4991822 L55.7390651,0.0177122591 L57.1897501,0.0177122591 L57.1897501,6.4991822 L55.7390651,6.4991822 Z M66.5590098,23.3520587 L66.5590098,11.4533416 L79.9782588,11.4533416 L79.9782588,18.8354326 C79.9782588,20.855171 78.6871272,22.2351047 76.9559525,23.3555741 L76.087273,22.2538986 C77.4149605,21.3947865 78.5275738,20.4046577 78.5275738,18.8557138 L78.5275738,12.8615338 L68.0096948,12.8615338 L68.0096948,15.0201309 L75.8467749,15.0201309 L75.8467749,16.4283231 L68.0096948,16.4283231 L68.0096948,18.6332965 L75.8467749,18.6332965 L75.8467749,20.0414887 L68.0096948,20.0414887 L68.0096948,23.357467 L66.5590098,23.3520587 Z M60.705971,0 L60.705971,8.33990507 L64.1353378,8.33990507 L64.1353378,9.74796206 L60.705971,9.74796206 L60.705971,23.357467 L59.255286,23.3540868 L59.255286,9.74796206 L55.6446524,9.74796206 L55.6446524,8.33990507 L59.255286,8.33990507 L59.255286,0 L60.705971,0 Z M104.830518,12.9421796 C104.606336,14.623768 103.826609,16.1968581 102.597019,17.4094228 L101.579201,16.4055403 C102.583382,15.4152882 103.2202,14.1304821 103.403337,12.7572144 L104.830518,12.9421796 Z M88.5122956,16.4055403 L87.4943413,17.4094228 C86.2648872,16.1968581 85.4850238,14.623768 85.260842,12.9421796 L86.6880234,12.7572144 C86.8711597,14.1304821 87.5079777,15.4152882 88.5122956,16.4055403 Z M105.022791,22.0721266 C106.036927,22.2626803 106.341427,22.2985283 106.341427,22.2985283 L106.118608,23.7391304 L104.830518,23.5214522 C100.795656,22.7730042 96.6773386,20.0173365 94.9892936,16.2887273 C94.6568392,17.1640747 94.405112,17.6493187 93.8355212,18.4558323 C92.6903398,20.0808544 91.0636584,21.2626143 89.1319317,22.1375527 C87.8431594,22.7214812 85.9942054,23.3588409 83.6404334,23.6966034 L83.4106607,22.2881692 L84.6305695,22.0380505 C86.7639779,21.6397688 88.6519319,20.9451611 90.161886,19.9584529 C91.6727946,18.9697002 92.8072034,17.7011144 93.4857486,16.1067608 C93.9372485,15.042768 94.1067484,14.165785 94.1419302,12.7250466 L94.1393393,11.2742216 L95.6869298,11.2674064 C95.6869298,11.2674064 95.6992025,12.4022775 95.7107934,12.7031015 C95.7583843,13.9381565 95.9540661,15.0415413 96.551475,16.1543311 C98.2719745,19.3591221 101.636201,21.2676575 105.022791,22.0721266 Z" id="Combined-Shape"></path>
                        <path d="M48.8669109,41.3336638 C47.685699,41.3336638 46.7246822,40.2874947 46.7246822,39.0016995 L46.7246822,31.0434783 L46.112654,31.0434783 L46.112654,39.0016995 C46.112654,40.6550064 47.3482655,42 48.8669109,42 L50.8180269,42 L50.8180269,41.3336638 L48.8669109,41.3336638 Z M40.1372732,39.0016995 L40.1372732,31.0434783 L39.525132,31.0434783 L39.525132,39.0016995 C39.525132,40.6550064 40.7607095,42 42.2794428,42 L44.2305049,42 L44.2305049,41.3336638 L42.2794428,41.3336638 C41.0982634,41.3336638 40.1372732,40.2874947 40.1372732,39.0016995 L40.1372732,39.0016995 Z M29.1733117,37.4347826 L31.1802206,32.524705 C31.3513604,32.1057249 31.7141094,31.9565217 31.996665,31.9565217 C32.2789614,31.9565217 32.6417105,32.1057249 32.8128503,32.524705 L34.8197591,37.4347826 L29.1733117,37.4347826 Z M31.9967424,31.0434783 C31.3494511,31.0434783 30.787435,31.4244902 30.5302295,32.0378509 L26.350088,42 L27.059059,42 L28.7077132,38.0713496 L35.2854957,38.0713496 L36.9340119,42 L37.6429829,42 L33.4631174,32.0378509 C33.2057739,31.4244902 32.6438958,31.0434783 31.9967424,31.0434783 L31.9967424,31.0434783 Z M25.078667,31.1000056 C24.8749916,31.0040187 24.6396842,31.0317482 24.464778,31.1728135 L22.1486318,33.0351027 C20.7661292,34.1474137 18.7591459,34.1474137 17.3766434,33.0351027 L15.0606402,31.1729557 C14.885591,31.0317482 14.6502836,31.0037343 14.446465,31.10029 C14.2426464,31.196277 14.1161186,31.3950766 14.1161186,31.6187618 L14.1161186,42 L14.7909814,42 L14.7909814,31.817277 L16.9515442,33.5548543 C18.5802322,34.8649696 20.9446136,34.8649696 22.5735878,33.5548543 L24.7342938,31.817277 L24.7342938,42 L25.4090134,42 L25.4090134,31.6187618 C25.4090134,31.3950766 25.2824856,31.196277 25.078667,31.1000056 L25.078667,31.1000056 Z M0,31.7116021 L0,31.0434783 L12.2339694,31.0434783 L12.2339694,31.7116021 L6.44338454,31.7116021 L6.44338454,42 L5.79058489,42 L5.79058489,31.7116021 L0,31.7116021 Z M61.6403179,42 C58.7863779,42 56.4644743,39.5421643 56.4644743,36.5217391 C56.4644743,33.5010317 58.7863779,31.0434783 61.6403179,31.0434783 C63.357792,31.0434783 64.9596234,31.9422665 65.9257524,33.4481037 L65.4060921,33.8215637 C64.5572027,32.4980811 63.1495286,31.7079718 61.6403179,31.7079718 C59.1325076,31.7079718 57.0923251,33.8674347 57.0923251,36.5217391 C57.0923251,39.1759025 59.1325076,41.3353653 61.6403179,41.3353653 C64.0427323,41.3353653 66.0159777,39.3538817 66.1776646,36.8539859 L61.6403179,36.8539859 L61.6403179,36.1893512 L66.8162946,36.1893512 L66.8162946,36.5217391 C66.8162946,39.5421643 64.494391,42 61.6403179,42 Z M77.1681149,36.8546417 L69.3089555,36.8546417 L69.3089555,39.9094287 C69.3089555,40.6952483 69.8952746,41.3344777 70.615883,41.3344777 L77.0902322,41.3344777 L77.0902322,42 L70.615883,42 C69.5586457,42 68.6984437,41.0622185 68.6984437,39.9094287 L68.6984437,33.1341909 C68.6984437,31.9814011 69.5586457,31.0434783 70.615883,31.0434783 L77.0902322,31.0434783 L77.0902322,31.7091419 L70.615883,31.7091419 C69.8952746,31.7091419 69.3089555,32.3483713 69.3089555,33.1341909 L69.3089555,36.188978 L77.1681149,36.188978 L77.1681149,36.8546417 Z M79.6858558,42 L79.050264,42 L79.050264,31.6139481 C79.050264,31.376091 79.1880788,31.1672271 79.4012001,31.0819364 C79.6141867,30.9966456 79.8507486,31.0558987 80.0032475,31.2330953 L87.825418,41.1644037 L87.825418,31.0936181 L88.4610097,31.0936181 L88.4610097,41.4237947 C88.4610097,41.6616518 88.3231949,41.8705157 88.110343,41.9559472 C87.8970871,42.0409565 87.6609293,41.9821255 87.5080262,41.8052105 L79.6858558,31.8736205 L79.6858558,42 Z M92.225308,42 L92.225308,31.0434783 L93.1663826,31.0434783 L93.1663826,42 L92.225308,42 Z M106.341427,36.8545667 L98.4821379,36.8545667 L98.4821379,39.9094557 C98.4821379,40.6952651 99.0685863,41.3344863 99.7891947,41.3344863 L106.263544,41.3344863 L106.263544,42 L99.7891947,42 C98.7319574,42 97.8717554,41.0620893 97.8717554,39.9094557 L97.8717554,33.1341639 C97.8717554,31.9815303 98.7319574,31.0434783 99.7891947,31.0434783 L106.263544,31.0434783 L106.263544,31.7091334 L99.7891947,31.7091334 C99.0685863,31.7091334 98.4821379,32.3484959 98.4821379,33.1341639 L98.4821379,36.1890529 L106.341427,36.1890529 L106.341427,36.8545667 Z" id="Combined-Shape"></path>
                    </g>
                </g>
            </g>
        </g>
    </g>
</svg>