<?xml version="1.0" encoding="UTF-8"?>
<svg width="119px" height="41px" viewBox="0 0 119 41" version="1.1" xmlns="http://www.w3.org/2000/svg" xmlns:xlink="http://www.w3.org/1999/xlink">
    <!-- Generator: Sketch 48.1 (47250) - http://www.bohemiancoding.com/sketch -->
    <title>Group 30 Copy 4</title>
    <desc>Created with Sketch.</desc>
    <defs></defs>
    <g id="Web-网站（12-28迭代）" stroke="none" stroke-width="1" fill="none" fill-rule="evenodd" transform="translate(-656.000000, -6754.000000)">
        <g id="Group-30-Copy-4" transform="translate(650.000000, 6752.000000)">
            <g id="云凤蝶-常规使用-copy" transform="translate(49.000000, 12.000000)" fill="#A3B1BF" stroke="#A3B1BF" stroke-width="0.2">
                <g id="文字">
                    <g id="Group-5" transform="translate(25.500000, 1.000000)">
                        <path d="M23.7305585,22.4915224 C23.5220865,22.6873441 23.3892224,22.8501702 23.0708867,22.9340937 C22.7523064,23.0180173 22.3955551,22.837498 22.1513591,22.5689904 C21.9504724,22.3480633 21.8638538,22.1453078 21.6707971,21.7993323 C20.2283768,19.3246629 19.497257,14.7014545 19.497257,8.05595101 L19.497257,2.83380085 C19.497257,2.63511001 19.4681394,2.50838781 19.4052553,2.43426727 C19.3384562,2.35608207 19.2342202,2.31663082 19.0949942,2.31663082 L5.14964125,2.31663082 C4.99964913,2.31663082 4.7476232,2.38381749 4.7476232,2.83380085 L4.7476232,12.3826773 C4.7476232,13.0696073 4.7008883,13.8265931 4.60839723,14.6321159 C4.51615085,15.4359651 4.37521208,16.2644413 4.19071931,17.0941131 C4.00549249,17.9237849 3.75860496,18.7596732 3.45715259,19.5781073 C3.1559449,20.3951069 2.79111902,21.1666777 2.37221768,21.8710619 C2.2398429,22.0970099 2.11529805,22.2796812 2.00151935,22.4150109 C1.89508122,22.5410158 1.79402616,22.6261349 1.70129041,22.6679771 C1.64329998,22.694278 1.5860436,22.7067111 1.52609569,22.7067111 C1.49648876,22.7067111 1.4656584,22.7036028 1.43507273,22.6971471 C1.32936866,22.6751501 1.20384506,22.6249394 1.06143818,22.5477106 C0.775156306,22.3858409 0.610972426,22.2003005 0.575248363,21.9980232 C0.537811502,21.7854646 0.632015368,21.4724847 0.85516842,21.06793 C1.56867094,19.856418 2.11211714,18.494513 2.46960246,17.0228617 C2.82635372,15.5536015 3.00742089,13.9925275 3.00742089,12.3826773 L3.00742089,2.65997625 C3.00742089,1.3681271 3.64996465,0.740254461 4.97175499,0.740254461 L19.2731252,0.740254461 C19.9966598,0.740254461 20.5053607,0.894472988 20.7852807,1.19812807 C21.0683817,1.50560873 21.212012,1.99743433 21.212012,2.65997625 L21.212012,8.25488095 C21.212012,9.52736313 21.237704,10.7089879 21.2885985,11.7667596 C21.3394931,12.8300306 21.421218,13.828745 21.5310817,14.734211 C21.6411901,15.6454153 21.782863,16.5147774 21.9524299,17.3176702 C22.1215075,18.1196065 22.3214155,18.9198692 22.5922822,19.6806806 C23.0290455,20.910125 23.9446582,21.7809217 23.8470287,22.2342525 C23.8184005,22.366713 23.7645697,22.4594832 23.7305585,22.4915224" id="Fill-1"></path>
                        <path d="M16.7610874,17.1085307 C16.0644681,16.2786199 15.3289439,15.4348413 14.575313,14.6003876 L14.5112054,14.5291362 L14.5674831,14.4516683 C15.3223374,13.419241 15.9776048,12.3009774 16.5149339,11.1277211 C17.0517736,9.95518206 17.4948988,8.69441571 17.8308518,7.3812868 C17.9299493,6.97816674 17.9845142,6.61019416 17.9928335,6.2871721 C18.0006634,5.97897414 17.9414496,5.71070563 17.8171494,5.49025683 C17.6952961,5.27482908 17.4968562,5.10841653 17.227213,4.99532295 C16.9470482,4.87816469 16.5650944,4.81862916 16.0923623,4.81862916 L6.7023167,4.81862916 C6.07372,4.81862916 5.78107631,5.08068111 5.78107631,5.64399716 C5.78107631,5.937371 5.85227975,6.14514759 5.99248446,6.26158856 C6.13831694,6.38305059 6.37712985,6.44425981 6.7023167,6.44425981 L15.4559356,6.44425981 C15.7928674,6.44425981 15.9859241,6.49136221 16.0820855,6.59656555 C16.1794702,6.70392077 16.1963535,6.88324464 16.1354269,7.16107708 C15.9139866,8.15859599 15.5777889,9.17404729 15.1356425,10.1794564 C14.693496,11.1853438 14.1334112,12.1914702 13.4715373,13.1693831 L13.3841846,13.2982572 L13.2784806,13.183729 C12.3660488,12.193383 11.4682982,11.2534869 10.6094526,10.389624 C9.75280914,9.52767395 8.9326238,8.74701738 8.17165232,8.06917316 C7.69476054,7.64214325 7.42511727,7.54650385 7.26338024,7.54076549 C7.06836601,7.54076549 6.86601121,7.64214325 6.66145425,7.84202959 C6.45958882,8.03904675 6.36000188,8.2358248 6.36489559,8.4263863 C6.37003398,8.63751027 6.50265345,8.85963277 6.76104119,9.08821093 C7.79361343,10.0479523 8.77920608,10.9943041 9.69065906,11.9009656 C10.6023567,12.8088226 11.4768622,13.7135712 12.2894623,14.5901063 L12.359687,14.6659005 L12.2938667,14.7455203 C11.3601473,15.8738261 10.2749677,16.9256204 9.06891355,17.8717331 C7.86188065,18.818324 6.50999401,19.6513432 5.04848832,20.3490326 C4.64206593,20.5319429 4.39884868,20.7418714 4.32519839,20.9726015 C4.24934592,21.2076353 4.27993159,21.4457774 4.41720008,21.6992218 C4.56670284,21.9629474 4.74728064,22.1142967 4.95428446,22.148966 C4.98487013,22.1542262 5.01692391,22.1566172 5.05069049,22.1566172 C5.25720494,22.1566172 5.52660353,22.0628906 5.8547266,21.8759156 C7.33311557,21.088086 8.71827942,20.1924231 9.97204723,19.2145102 C11.2241022,18.2375538 12.3699638,17.1513294 13.3778228,15.9857242 L13.4700692,15.8786081 L13.5637837,15.9845287 C14.3223083,16.8414577 15.0336087,17.6708904 15.6783546,18.449156 C16.320409,19.2255088 16.9123029,19.9714961 17.4383764,20.6677509 C17.7833828,21.1339929 18.1071015,21.3704613 18.4002346,21.3704613 C18.5565886,21.3704613 18.7070701,21.3051875 18.8644028,21.1677058 C19.1230352,20.9592119 19.2417076,20.7435451 19.2272711,20.5087504 C19.211856,20.2605661 19.0403315,19.9270237 18.7178362,19.5172089 C18.1195805,18.7537675 17.4611322,17.9432236 16.7610874,17.1085307" id="Fill-4"></path>
                    </g>
                    <g id="Group-9" transform="translate(51.500000, 0.000000)">
                        <path d="M6.39895348,14.2528285 C6.39895348,14.8113625 6.08330936,14.8948079 5.89490163,14.8948079 L5.136377,14.8948079 L5.136377,5.10683295 L5.89490163,5.10683295 C6.08330936,5.10683295 6.39895348,5.18358357 6.39895348,5.69907992 L6.39895348,14.2528285 Z M2.76488644,14.8948079 C2.63667131,14.8948079 2.52533947,14.8264257 2.43407183,14.6922915 C2.35308097,14.5734595 2.31172915,14.4256967 2.31172915,14.2528285 L2.31172915,5.69907992 C2.31172915,5.18358357 2.59556417,5.10683295 2.76488644,5.10683295 L3.59999759,5.10683295 L3.59999759,14.8948079 L2.76488644,14.8948079 Z M6.1493744,3.58042818 L5.136377,3.58042818 L5.136377,0.949388381 C5.136377,0.098436849 4.69790082,-7.17295475e-05 4.36806495,-7.17295475e-05 C4.03847376,-7.17295475e-05 3.59999759,0.098436849 3.59999759,0.949388381 L3.59999759,3.58042818 L2.48496638,3.58042818 C1.78223002,3.58042818 1.31414691,3.72364818 1.09344072,4.0060235 C0.865393956,4.29796276 0.749657779,4.80915533 0.749657779,5.52477712 L0.749657779,14.4020259 C0.749657779,14.8096888 0.77070072,15.1463395 0.811807861,15.4033704 C0.850223463,15.6453381 0.930969634,15.8390078 1.05159952,15.9788805 C1.17051661,16.1168403 1.34253042,16.2170226 1.56323662,16.276319 C1.79642177,16.339441 2.10668281,16.3712411 2.48496638,16.3712411 L3.59999759,16.3712411 L3.59999759,20.6989238 L1.01269455,21.0496813 C0.609208379,21.0869806 0.313139088,21.4370208 0.351310005,21.8312942 C0.387523439,22.2028533 0.707082525,22.4809248 1.08145113,22.4809248 C1.10445156,22.4809248 1.12794135,22.4799685 1.15143115,22.4775775 L4.87309554,22.0216166 C6.09823516,21.908284 7.16041433,21.1039566 7.57931568,19.973499 L7.80516027,19.364276 C7.9434075,18.9917606 7.74619109,18.5805112 7.3649713,18.4456596 C6.9837515,18.3108081 6.56313736,18.5032823 6.42464544,18.8757978 L6.19904553,19.4850207 C6.01969116,19.9684779 5.62183276,20.3381242 5.136377,20.5040585 L5.136377,16.3712411 L6.1493744,16.3712411 C6.85284483,16.3712411 7.33022597,16.2232391 7.56757078,15.931539 C7.81176677,15.6314704 7.93557757,15.1166913 7.93557757,14.4020259 L7.93557757,5.52477712 C7.93557757,4.82660952 7.81176677,4.32043801 7.56781546,4.02036941 C7.33022597,3.72843015 6.85284483,3.58042818 6.1493744,3.58042818 Z" id="Fill-6"></path>
                        <path d="M16.231537,4.93291271 L19.5298957,4.93291271 L19.5298957,7.53884717 C19.5298957,7.70143414 19.5000441,7.81596232 19.437894,7.88912646 C19.3693821,7.96922445 19.2384754,8.00652382 19.0258438,8.00652382 L16.7358335,8.00652382 C16.519287,8.00652382 16.3920506,7.97018085 16.3235387,7.88912646 C16.2606545,7.81596232 16.231537,7.70454242 16.231537,7.53884717 L16.231537,4.93291271 Z M23.4110949,20.8425263 C21.6748076,19.7113514 20.0449584,18.0010799 18.5665694,15.7597706 L18.4449608,15.5756648 L23.3770837,15.5756648 C23.6511313,15.5756648 23.8684119,15.5099127 24.023053,15.3805604 C24.1740239,15.2543164 24.2474295,15.0642331 24.2474295,14.8000293 C24.2474295,14.5355863 24.1740239,14.3457421 24.023053,14.2194981 C23.8681672,14.0899067 23.6508866,14.0241547 23.3770837,14.0241547 L17.300078,14.0241547 L17.300078,12.119257 L22.1049645,12.119257 C22.3843952,12.119257 22.6185591,12.0590042 22.8003603,11.9404113 C22.9691932,11.8306651 23.0511628,11.6597097 23.0511628,11.4182202 C23.0511628,11.138475 22.9745763,10.9409796 22.8165095,10.8144965 C22.652815,10.6839487 22.4135127,10.6174793 22.1049645,10.6174793 L12.9693917,10.6174793 C12.4200731,10.6174793 12.3381035,10.3245837 12.3381035,10.1498027 L12.3381035,4.93291271 L14.7458074,4.93291271 L14.7458074,7.58857966 C14.7458074,8.01154489 14.7707654,8.35967229 14.8201918,8.62411522 C14.8661926,8.87206036 14.9574603,9.06405645 15.0917925,9.19508242 C15.2256354,9.32610839 15.4221178,9.41529213 15.6758565,9.46048175 C15.947702,9.50877964 16.3127725,9.53316769 16.7610361,9.53316769 L19.0003966,9.53316769 C19.7425273,9.53316769 20.2605262,9.38683941 20.5402016,9.09800843 C20.8220791,8.80774286 20.9647307,8.29989767 20.9647307,7.58857966 L20.9647307,4.93291271 L23.0717163,4.93291271 C23.3565301,4.93291271 23.5613318,4.86692153 23.6804935,4.73661285 C23.8033256,4.6022395 23.8654757,4.40737423 23.8654757,4.1572772 C23.8654757,3.93730659 23.8050384,3.76396018 23.6807382,3.62791314 C23.5610871,3.49736537 23.3562854,3.43137418 23.0717163,3.43137418 L20.9647307,3.43137418 L20.9647307,0.94953184 C20.9647307,0.649702331 20.9108999,0.437621969 20.8047064,0.319985511 C20.7019386,0.206413728 20.5228289,0.14903009 20.2727605,0.14903009 C20.0190217,0.14903009 19.8296353,0.208326516 19.7102288,0.325245678 C19.5908223,0.442164841 19.5298957,0.652332415 19.5298957,0.94953184 L19.5298957,3.43137418 L16.231537,3.43137418 L16.231537,0.924426498 C16.231537,0.618619527 16.170855,0.404626377 16.0565869,0.305400503 C15.9359571,0.201631758 15.7448578,0.14903009 15.4884275,0.14903009 C15.2319973,0.14903009 15.0411427,0.201631758 14.9210022,0.305400503 C14.8045319,0.405582771 14.7458074,0.614076656 14.7458074,0.924426498 L14.7458074,3.43137418 L12.3381035,3.43137418 L12.3381035,1.4468567 C12.3381035,0.66261365 11.9431813,0.571756223 11.6461332,0.571756223 C11.1391452,0.571756223 10.9035132,0.849827769 10.9035132,1.4468567 L10.9035132,3.43137418 L9.45742266,3.43137418 C9.18998156,3.43137418 8.99374389,3.49736537 8.87458212,3.62791314 C8.74979259,3.76372109 8.6893553,3.93706749 8.6893553,4.1572772 C8.6893553,4.40785242 8.75150538,4.60247859 8.87482681,4.73661285 C8.99325452,4.86692153 9.18949219,4.93291271 9.45742266,4.93291271 L10.9035132,4.93291271 L10.9035132,10.0754431 C10.9035132,10.8345808 11.0620693,11.3704005 11.3755112,11.6683172 C11.6891979,11.9674294 12.2421868,12.119257 13.0200416,12.119257 L15.7382513,12.119257 L15.7382513,14.0241547 L9.76303468,14.0241547 C9.15181064,14.0241547 8.86724156,14.2709043 8.86724156,14.8000293 C8.86724156,15.3289151 9.15181064,15.5756648 9.76303468,15.5756648 L14.513601,15.5756648 L14.3648323,15.7671827 C13.5147954,16.862971 12.6718543,17.8126703 11.8587648,18.5904576 C11.0461647,19.368245 10.1339777,20.1166233 9.14593819,20.8162255 C8.98664802,20.9250153 8.86601813,21.0263931 8.78820819,21.1179678 C8.78820819,21.1179678 8.14664316,21.5041119 8.57141695,22.1465695 C8.99619075,22.7895054 8.64041823,22.2393397 8.64041823,22.2393397 C8.76006937,22.3997748 8.91642332,22.5028263 9.11926749,22.5542324 C9.15474686,22.5633182 9.19242841,22.5678611 9.23133338,22.5678611 C9.40187908,22.5678611 9.60765947,22.4820247 9.84475959,22.3115475 C10.4141424,21.9189478 10.9502481,21.5112848 11.4388847,21.1000354 C11.9280108,20.6878296 12.4051472,20.2548222 12.8575705,19.8129682 C13.3121959,19.368245 13.7592361,18.8857443 14.1852333,18.3793337 C14.6144114,17.8695757 15.0621856,17.2947829 15.516077,16.6702577 L15.7382513,16.3649289 L15.7382513,23.0058895 C15.7382513,23.2330331 15.7981992,23.4307675 15.9212759,23.6110478 C16.0335865,23.7760257 16.2249305,23.8561237 16.5063186,23.8561237 C16.7610361,23.8561237 16.9518907,23.7834378 17.0898932,23.6344794 C17.2293639,23.4836083 17.300078,23.2722452 17.300078,23.0058895 L17.300078,16.3218912 L17.5264119,16.6762351 C18.3321608,17.9398707 19.1584633,19.0344635 19.9818296,19.9296483 C20.8051958,20.824594 21.6481369,21.6107498 22.4837374,22.2637278 C23.0465138,22.6764118 23.3242316,22.7694211 23.4759366,22.7749204 C23.6494185,22.7749204 23.8106661,22.6799982 23.9692223,22.4829811 C24.1686408,22.2426871 24.2476742,22.0043059 24.2102373,21.7551653 C24.1847901,21.5846881 24.0242765,21.2872495 23.4110949,20.8425263 Z" id="Fill-9"></path>
                    </g>
                    <path d="M23.2543587,9.72585716 L0.935383212,9.72585716 C0.57545104,9.72585716 0.32685071,9.79065285 0.196188725,9.91761415 C0.065771426,10.0445755 -4.89370728e-05,10.2621551 -4.89370728e-05,10.5641365 C-4.89370728e-05,10.8651615 0.0652820553,11.07772 0.193497186,11.1958347 C0.324403856,11.3163403 0.574227614,11.3775495 0.935383212,11.3775495 L8.95200981,11.3775495 L3.80382974,18.9710785 C3.2361597,19.8086406 3.18550982,20.8781281 3.67145496,21.7620752 C4.15764478,22.6469787 5.09821532,23.1966662 6.12589385,23.1966662 L18.2595964,23.1966662 C19.253019,23.1966662 20.1490568,22.6981458 20.6555555,21.8629748 C21.1620542,21.0270865 21.1796715,20.0192863 20.7030244,19.1673784 L17.4893269,13.4287755 C17.342271,13.1664845 17.0611275,13.0031802 16.7555155,13.0031802 C16.6162895,13.0031802 16.4777976,13.0383277 16.3542315,13.1050361 C15.9495219,13.3209421 15.8005085,13.8187451 16.0214594,14.214214 L19.2354016,19.9525778 C19.5114067,20.4446425 19.314435,20.8692815 19.2170502,21.0289993 C19.1196655,21.1891952 18.8311814,21.5621889 18.2595964,21.5621889 L6.12589385,21.5621889 C5.52421254,21.5621889 5.23964346,21.1609816 5.14519491,20.9888307 C5.05050167,20.817158 4.86551954,20.3643054 5.19780226,19.8743926 L10.9021522,11.4609949 L10.9063118,11.4480836 L10.9508446,11.3775495 L23.2543587,11.3775495 C23.615759,11.3775495 23.8653381,11.3163403 23.9960001,11.1958347 C24.1247046,11.07772 24.1897909,10.8651615 24.1897909,10.5641365 C24.1897909,10.261916 24.1239705,10.0445755 23.9935532,9.91785325 C23.8628912,9.79041376 23.6142909,9.72585716 23.2543587,9.72585716" id="Fill-12"></path>
                    <path d="M2.97390592,4.0400233 L21.3194358,4.0400233 C21.6629741,4.0400233 21.902521,3.97546671 22.032449,3.84826631 C22.1628663,3.72106592 22.2289313,3.50348629 22.2289313,3.20174399 C22.2289313,2.8992844 22.1621322,2.6769228 22.0302468,2.54039756 C21.8998295,2.40602421 21.6605272,2.33812024 21.3194358,2.33812024 L2.97390592,2.33812024 C2.63232515,2.33812024 2.39326755,2.40626331 2.26285025,2.54039756 C2.13096484,2.6766837 2.06392105,2.8992844 2.06392105,3.20174399 C2.06392105,3.50372539 2.1299861,3.72106592 2.26064808,3.84850541 C2.39008664,3.97546671 2.63036767,4.0400233 2.97390592,4.0400233" id="Fill-15"></path>
                </g>
            </g>
            <g id="Group-3-Copy" transform="translate(21.391304, 24.000000) scale(-1, 1) translate(-21.391304, -24.000000) ">
                <g id="图形" transform="translate(21.311676, 24.504024) rotate(-9.000000) translate(-21.311676, -24.504024) translate(3.050806, 3.634459)">
                    <g id="画板-3-拷贝-30" transform="translate(0.000000, 0.017707)">
                        <path d="M22.3865383,24.295145 C23.6785541,24.4040823 25.9329323,24.7864555 27.0703553,26.1191774 C28.7210642,28.0533178 29.1810968,29.6888454 29.880193,33.1977576 L30.5648434,39.2956112 C30.5647934,39.2949637 17.0191555,37.0179676 16.9661214,36.6742071 C14.8967321,35.9733789 12.2650618,34.8756181 10.3580253,33.1911179 C8.92484205,31.9251759 7.90092323,30.3278505 7.83250186,28.318578 C4.74121931,26.132184 4.74069529,24.5764876 7.83092981,23.6514889 C8.12182435,23.5644155 8.4297117,23.4906378 8.75131345,23.42883 C8.60328882,22.5634746 8.43143024,21.5357223 8.23573771,20.3455731 C7.94197462,17.0549459 8.83269403,13.7939275 10.7119356,11.2799493 C12.5911772,8.76597117 15.3049926,7.20497961 18.256336,6.94039644 L35.6748584,3.48004775 L34.8341089,11.8796697 C34.2206897,17.3577171 31.3240654,21.3237957 26.7496791,23.3213265 C25.0849242,23.9812009 23.6981971,24.2164523 22.3865383,24.295145 Z" id="Combined-Shape" fill="#D6DBE1"></path>
                        <path d="M16.0283459,4.73530709 C13.1262603,5.30114434 8.4192941,6.84248361 6.23914659,9.28479808 C4.05899908,11.7271126 3.72370644,14.359431 2.93712756,18.4454892 C2.4457713,26.4098364 2.37911866,30.4578054 2.73716964,30.5893961 C6.57722023,24.4978302 18.0189759,24.4654624 18.0666514,24.0058844 C23.7128858,23.1829583 26.6774032,20.2345098 27.9931784,13.3994245 L29.265572,2.53265682 L16.0283459,4.73530709 Z" id="形状_845_拷贝_10-2" fill="#A3B1BF" transform="translate(15.888174, 16.561026) rotate(-11.000000) translate(-15.888174, -16.561026) "></path>
                        <path d="M14.5640704,24.4350908 C8.42924865,24.2867832 6.94657297,26.0544004 5.58908673,28.2754212 C4.23160049,30.4964419 2.36813097,40.934439 3.15228066,38.7545538 C3.15230653,38.75394 11.0270158,39.2062545 17.7269293,37.0905307 C21.9831514,35.1503041 21.7447392,33.6182463 22.9671919,29.1598073 C23.8519334,24.8828528 24.3030557,21.7550105 24.320559,19.7762806 C24.0530519,22.4642793 20.8008891,24.017216 14.5640704,24.4350908 Z" id="形状_845_拷贝_10-2" fill="#A3B1BF" transform="translate(13.643379, 29.414199) scale(-1, 1) rotate(-4.000000) translate(-13.643379, -29.414199) "></path>
                    </g>
                </g>
                <g id="图形" transform="translate(14.426776, 31.497021) rotate(-9.000000) translate(-14.426776, -31.497021) translate(7.122429, 23.670934)" fill="#8FA1B3">
                    <g id="画板-3-拷贝-30" transform="translate(0.253035, 0.002441)">
                        <path d="M12.775413,5.89133294 C9.21653289,7.21138697 3.76027461,9.69385559 2.02761223,14.0969996 C1.93874437,14.0829262 1.83207437,13.8546366 1.7076022,13.4121306 C1.59610849,12.5889372 1.47290532,11.6390758 1.2436474,10.5098547 C0.455501464,5.67125193 0.125210786,2.20558781 0.252775363,0.11286236 C0.631612546,2.7739636 4.02969521,4.61269769 10.4470233,5.62906461 C10.5769446,5.63502933 10.8609469,5.70729726 10.9868988,5.71456928 C11.6405322,5.7523078 12.23444,5.81197784 12.775413,5.89133294 Z" id="Combined-Shape"></path>
                    </g>
                </g>
            </g>
        </g>
    </g>
</svg>