<?xml version="1.0" encoding="UTF-8"?>
<svg width="77px" height="72px" viewBox="0 0 77 72" version="1.1" xmlns="http://www.w3.org/2000/svg" xmlns:xlink="http://www.w3.org/1999/xlink">
    <!-- Generator: Sketch 49.3 (51167) - http://www.bohemiancoding.com/sketch -->
    <title>钻石</title>
    <desc>Created with Sketch.</desc>
    <defs>
        <polygon id="path-1" points="37.5499464 4.93018403 48.2277221 19.5955662 26.6029505 19.5955661 37.2807262 4.93018395"></polygon>
        <polygon id="path-2" points="5.27940614 24.4825737 20.5430448 24.4825737 30.8876724 56.6014932"></polygon>
        <path d="M43.3861473,57.2724182 L53.3839464,24.4825737 L69.8477615,24.4825737 C69.8295209,24.5189023 69.8340811,24.5823277 69.8112804,24.6095101 L43.3861473,57.2724182 Z" id="path-3"></path>
    </defs>
    <g id="Page-1" stroke="none" stroke-width="1" fill="none" fill-rule="evenodd">
        <g id="首页" transform="translate(-682.000000, -1057.000000)">
            <g id="钻石" transform="translate(683.000000, 1058.000000)">
                <path d="M74.187291,20.9012584 L64.1073235,3.39344179 C62.9847554,1.45315314 60.5435334,0.0433472912 58.2939232,0.0433472912 L16.6598731,0.0433472912 C14.4057028,0.0433472912 11.9552744,1.44862268 10.8373526,3.38438097 L0.82578708,20.6337945 C-0.346942433,22.6556302 -0.132443946,25.5614901 1.33230647,27.4065551 L33.8994277,68.2567309 C34.1823283,68.6012115 34.5519575,68.8142252 34.9032601,69.0635676 L35.0036691,69.3809512 L35.2135215,69.3129099 C35.8751716,69.6982494 36.5916293,69.9566525 37.3582486,69.9566525 C38.1339881,69.9566525 38.855006,69.6891886 39.5256902,69.290258 L39.7036216,69.3446227 L39.785704,69.0817746 C40.1416529,68.8369626 40.5204024,68.6193329 40.8078631,68.2657062 L73.6533248,27.6694031 C75.1227214,25.8425452 75.3509003,22.9366852 74.187291,20.9012584 Z M67.7669624,19.5955661 L55.6017217,19.5955661 L60.9451697,7.75449692 L67.7669624,19.5955661 Z M43.6234465,4.93018403 L56.8246127,4.93018403 L51.7732715,16.1230658 L43.6234465,4.93018403 Z M23.057315,16.1230657 L18.0014137,4.93018395 L31.207054,4.93018395 L23.057315,16.1230657 Z M48.2413165,24.4825737 L37.2852864,60.4276204 L25.7085614,24.4825737 L48.2413165,24.4825737 Z M13.9265443,7.85425093 L19.228865,19.5955661 L7.10466541,19.5955661 L13.9265443,7.85425093 Z" id="Shape" stroke="#FFFFFF" stroke-width="2" fill="#000000" fill-rule="nonzero"></path>
                <g id="Path">
                    <use fill="#FADB14" fill-rule="evenodd" xlink:href="#path-1"></use>
                    <path stroke="#FADB14" stroke-width="1" d="M37.8043897,4.43018411 L49.2102593,20.0955662 L25.6204133,20.0955662 L37.026283,4.43018387 L37.8043897,4.43018411 Z"></path>
                </g>
                <g id="Path">
                    <use fill="#FADB14" fill-rule="evenodd" xlink:href="#path-2"></use>
                    <path stroke="#FADB14" stroke-width="1" d="M4.24128993,23.9825737 L20.9073015,23.9825737 L32.2023593,59.0524737 L4.24128993,23.9825737 Z"></path>
                </g>
                <g id="Path">
                    <use fill="#FADB14" fill-rule="evenodd" xlink:href="#path-3"></use>
                    <path stroke="#FADB14" stroke-width="1" d="M70.3203505,24.6556434 C70.299775,24.7732886 70.2804315,24.8282136 70.1999975,24.9239922 L42.1582749,59.5850932 L53.0136737,23.9825737 L70.6582983,23.9825737 L70.3203505,24.6556434 Z"></path>
                </g>
            </g>
        </g>
    </g>
</svg>