<?xml version="1.0" encoding="UTF-8"?>
<svg width="163px" height="33px" viewBox="0 0 163 33" version="1.1" xmlns="http://www.w3.org/2000/svg" xmlns:xlink="http://www.w3.org/1999/xlink">
    <!-- Generator: Sketch 47.1 (45422) - http://www.bohemiancoding.com/sketch -->
    <title>broadview</title>
    <desc>Created with Sketch.</desc>
    <defs>
        <polygon id="path-1" points="162.299121 11.2134282 162.299121 0.166604027 0.0493708106 0.166604027 0.0493708106 22.2602523 162.299121 22.2602523"></polygon>
    </defs>
    <g id="Page-1" stroke="none" stroke-width="1" fill="none" fill-rule="evenodd">
        <g id="Web" transform="translate(-650.000000, -6106.000000)">
            <g id="特别鸣谢" transform="translate(0.000000, 5835.000000)">
                <g id="broadview" transform="translate(650.000000, 271.000000)">
                    <g id="Group-3" transform="translate(0.221505, 0.000000)">
                        <mask id="mask-2" fill="white">
                            <use xlink:href="#path-1"></use>
                        </mask>
                        <g id="Clip-2"></g>
                        <path d="M11.2261595,1.25015839 L11.2261595,5.41574228 L10.6787937,5.41574228 L9.76371033,9.31050738 L11.2261595,9.31050738 L11.2261595,13.2960107 L8.7552941,13.2960107 L7.74547437,17.5516349 L11.0465112,17.5516349 L11.2261595,17.5516349 L11.2261595,21.9880376 L0.0493708106,21.9880376 L5.1840831,1.25015839 L11.2261595,1.25015839 Z M21.3987424,17.1893799 L20.2064674,21.9880376 L21.3987424,21.9880376 L21.3987424,17.1893799 Z M21.3987424,2.42835973 L21.3987424,8.49735302 C21.123656,8.85611812 20.7559385,9.21907114 20.3910279,9.58272215 C19.7496275,10.1257557 18.9215613,10.577353 17.8268297,10.940306 C19.1980512,11.304655 20.2064674,11.9377289 20.6640091,12.7529772 C21.2148837,13.6561718 21.306813,14.7443329 20.940499,16.1033128 C20.6640091,17.0979436 20.2064674,18.0946685 19.4724358,19.000655 C18.741913,19.8152054 17.9166538,20.5397154 16.9117463,20.9913128 C16.2689424,21.3556617 15.4436832,21.5357423 14.2549169,21.7172188 C12.7868538,21.8979973 11.7791393,21.9880376 11.3215976,21.9880376 L11.2261595,21.9880376 L11.2261595,17.5516349 C12.2359792,17.4608966 13.0640454,17.2808161 13.5201836,16.9185611 C14.0703564,16.5549101 14.4352669,16.0104805 14.618424,15.3781047 C14.8029845,14.7443329 14.7075463,14.2012993 14.3447411,13.8390443 C13.9770235,13.4767893 13.2450972,13.2960107 12.0521204,13.2960107 L11.2261595,13.2960107 L11.2261595,9.31050738 L12.5117674,9.31050738 C13.6107095,9.31050738 14.3447411,9.21907114 14.8029845,8.85611812 C15.2619297,8.49735302 15.6282437,7.95292349 15.7180678,7.31845369 C15.9012248,6.77542013 15.8099972,6.23238658 15.5356126,5.95877584 C15.1664915,5.59861477 14.5278981,5.41574228 13.6107095,5.41574228 L11.2261595,5.41574228 L11.2261595,1.25015839 L17.3643757,1.25015839 C19.1980512,1.25015839 20.4808521,1.61450738 21.3987424,2.42835973 L21.3987424,2.42835973 Z M21.3987424,8.49735302 L21.3987424,2.42835973 C21.4892683,2.5184 21.5811977,2.60983624 21.6703201,2.7005745 C22.4036499,3.69590336 22.5910174,4.87201074 22.2240016,6.4131651 C22.0422481,7.13767517 21.7671617,7.86148725 21.3987424,8.49735302 L21.3987424,8.49735302 Z M36.7881425,18.0946685 C34.1334184,17.1893799 35.5958675,13.8390443 36.5158631,12.2985879 C36.9677908,11.5761718 37.6141035,10.8495678 38.2512934,10.3972725 L38.2512934,6.4131651 C36.3306009,6.95689664 34.3172771,8.04366174 32.7586881,9.6734604 C32.8485122,8.85611812 32.9397399,7.4999302 32.9397399,6.77542013 C30.9257144,7.31845369 30.0106311,7.40849396 28.5411644,8.49735302 L28.5411644,7.04693691 L23.6878543,6.95689664 L21.3987424,17.1893799 L21.3987424,21.9880376 L25.2457416,21.9880376 C25.7952126,19.9966819 27.3502929,11.3939973 31.1088714,11.7555544 C29.6429135,15.7403597 29.0008113,20.2695946 32.9397399,21.5357423 C34.5011359,22.0794738 36.4211267,22.4410309 38.2512934,22.0794738 L38.2512934,18.0946685 C37.798664,18.2782389 37.3418241,18.2782389 36.7881425,18.0946685 L36.7881425,18.0946685 Z M46.133361,16.1033128 L46.133361,20.8112322 C45.4014347,19.9966819 45.2182777,18.9106148 45.4912588,17.7338094 C45.6758193,17.0979436 45.8575728,16.6463463 46.133361,16.1033128 L46.133361,16.1033128 Z M38.2512934,10.3972725 C38.985325,9.94707114 39.9032154,9.94707114 41.0042627,10.6680913 C41.9165391,13.024494 40.5446158,17.2808161 38.2512934,18.0946685 L38.2512934,22.0794738 C40.4533882,21.7172188 42.745307,20.6318497 44.5754737,18.0053262 C45.2182777,17.2808161 45.7656435,16.3748295 46.133361,15.3781047 L46.133361,12.5701047 L45.4912588,11.5761718 L46.133361,11.5761718 L46.133361,8.85611812 C45.9488005,8.49735302 45.6758193,8.22513826 45.4014347,7.95292349 C43.8400386,6.14025235 41.0042627,5.68795705 38.2512934,6.4131651 L38.2512934,10.3972725 Z M46.133361,11.5761718 L46.959322,11.5761718 L46.6842356,9.94707114 C46.496868,9.58272215 46.3158163,9.21907114 46.133361,8.85611812 L46.133361,11.5761718 Z M46.133361,15.3781047 C46.4063422,14.7443329 46.5909027,14.1105611 46.7740597,13.5668295 L46.133361,12.5701047 L46.133361,15.3781047 Z M54.5599874,12.5701047 L54.5599874,15.3781047 C53.4631505,15.6489235 52.6392948,15.9218362 52.2715773,16.192655 C51.9045615,16.5549101 51.6287733,16.9185611 51.5375457,17.2808161 C51.4484233,17.7338094 51.5375457,18.0946685 51.7185975,18.3668832 C51.9964909,18.7291383 52.4540325,18.8198765 53.0968365,18.8198765 C53.5522729,18.8198765 54.0119198,18.7291383 54.5599874,18.5476617 L54.5599874,21.1734872 C54.284901,21.2642255 54.1038492,21.3556617 53.9220957,21.4464 C52.7298207,21.8979973 51.4484233,22.0794738 50.0729913,22.0794738 C48.2400176,22.0794738 46.959322,21.6285745 46.133361,20.8112322 L46.133361,16.1033128 C46.4063422,15.6489235 46.7740597,15.1966282 47.2323031,14.8364671 C48.1466847,14.1105611 49.521415,13.5668295 51.4484233,13.2031785 C52.7298207,12.9344537 53.7361317,12.7529772 54.5599874,12.5701047 L54.5599874,12.5701047 Z M54.5599874,6.23238658 L54.5599874,10.0350174 L54.4701632,10.0350174 C54.0119198,10.3079302 53.1866606,10.940306 52.8217501,11.5761718 L46.5909027,11.5761718 C47.0470408,10.6680913 48.4224729,9.0389906 48.9726457,8.40521879 C49.521415,7.86148725 50.3452707,7.4999302 51.2645645,7.04693691 C51.9045615,6.77542013 52.6392948,6.50320537 53.6470093,6.4131651 C53.9220957,6.32312483 54.1950768,6.32312483 54.5599874,6.23238658 L54.5599874,6.23238658 Z M54.5599874,21.1734872 L54.5599874,18.5476617 C54.7459514,18.5476617 54.837179,18.4569235 55.0210378,18.3668832 C55.6624383,18.0946685 56.2105058,17.6430711 56.5782233,17.1893799 C56.8547133,16.7370846 57.1290979,16.192655 57.3108514,15.4695409 L57.5817273,14.4728161 C56.6659422,14.7443329 55.7529641,15.0165477 54.837179,15.2866685 C54.7459514,15.2866685 54.6526185,15.2866685 54.5599874,15.3781047 L54.5599874,12.5701047 C55.2048966,12.4807624 55.6624383,12.2985879 56.0245418,12.2071517 C56.7613804,12.0270711 57.4961137,11.8462926 58.3171624,11.5761718 C58.5003194,10.8495678 58.4090918,10.3079302 58.2245313,10.0350174 C57.9515501,9.7621047 57.4961137,9.58272215 56.7613804,9.58272215 C55.8455953,9.58272215 55.1101602,9.7621047 54.5599874,10.0350174 L54.5599874,6.23238658 C55.2947207,6.14025235 56.0245418,6.14025235 56.8547133,6.14025235 C58.5922488,6.14025235 59.9634703,6.23238658 60.970483,6.4131651 C62.0750392,6.59394362 62.8069655,7.04693691 63.4476642,7.68001074 C63.8125747,8.04366174 64.0890646,8.6753396 64.1795905,9.49268188 C64.2750287,10.3079302 64.1795905,11.0317423 63.9985387,11.7555544 L62.3466168,18.4569235 C62.1662668,19.1814336 62.0750392,19.8152054 62.0750392,20.1767624 C62.0750392,20.6318497 62.1662668,21.084145 62.3466168,21.7172188 L56.7613804,21.7172188 C56.6659422,21.3556617 56.5782233,21.084145 56.5782233,20.8112322 C56.4820835,20.6318497 56.5782233,20.3589369 56.5782233,19.9059436 C55.8455953,20.4489772 55.2048966,20.9012725 54.5599874,21.1734872 L54.5599874,21.1734872 Z M73.1584949,6.50320537 L73.1584949,10.940306 C72.7914792,11.1224805 72.4251651,11.304655 72.0616581,11.6655141 C71.4181524,12.2071517 70.9620142,13.2031785 70.6841208,14.4728161 C70.3185085,15.7403597 70.4076309,16.6463463 70.6841208,17.1893799 C71.0511366,17.7338094 71.6013094,18.0053262 72.2434116,18.0053262 C72.6062169,18.0053262 72.882005,18.0053262 73.1584949,17.9145879 L73.1584949,21.084145 C72.882005,21.2642255 72.6062169,21.4464 72.2434116,21.6285745 C71.3276265,22.0794738 70.3185085,22.2602523 69.3093905,22.2602523 C67.2041375,22.2602523 65.8280037,21.4464 65.0960774,19.9059436 C64.4553787,18.3668832 64.3648528,16.4655678 64.9143238,14.2913396 C65.4680054,11.7555544 66.562737,9.85423893 68.1192208,8.49735302 C69.6771081,7.22701745 71.3276265,6.50320537 73.1584949,6.50320537 L73.1584949,6.50320537 Z M83.6019538,6.32312483 L82.3205564,6.32312483 L83.6019538,13.5668295 L83.6019538,6.32312483 Z M83.6019538,1.16081611 L83.6019538,5.05558121 L82.3205564,6.23238658 L82.871431,9.40194362 L79.7577616,21.8979973 L74.2581388,21.8979973 L74.8090134,19.7265611 C74.2581388,20.2695946 73.7100713,20.7211919 73.1584949,21.084145 L73.1584949,17.9145879 C73.6181419,17.7338094 73.9844559,17.5516349 74.35077,17.1893799 C74.9928721,16.6463463 75.4504138,15.6489235 75.7219915,14.3820779 C76.0876038,13.2031785 75.9977796,12.2985879 75.6342726,11.7555544 C75.263748,11.1224805 74.7149787,10.8495678 73.9844559,10.8495678 C73.7100713,10.8495678 73.4335814,10.8495678 73.1584949,10.940306 L73.1584949,6.50320537 C74.07428,6.50320537 74.8995393,6.68537987 75.5388344,6.95689664 C76.1823401,7.31845369 76.7332147,7.77144698 77.1893529,8.31517852 L78.9275902,1.16081611 L83.6019538,1.16081611 Z M83.6019538,5.05558121 L83.6019538,1.16081611 L84.8847547,1.16081611 L83.9689696,4.69332617 L83.6019538,5.05558121 Z M98.9934591,14.6515007 L97.2531166,21.7172188 L98.9934591,21.7172188 L98.9934591,14.6515007 Z M98.9934591,6.32312483 L98.9934591,8.85611812 L90.2917464,21.7172188 L84.9794911,21.7172188 L83.6019538,13.5668295 L83.6019538,6.32312483 L88.5471933,6.32312483 L89.1928043,16.1033128 L94.6861113,6.32312483 L98.9934591,6.32312483 Z M98.9934591,8.85611812 L100.645381,6.32312483 L98.9934591,6.32312483 L98.9934591,8.85611812 Z M106.597633,13.6561718 C106.597633,13.7476081 106.503599,13.9283866 106.503599,14.0184268 C106.046759,15.7403597 106.140092,17.1893799 106.597633,18.4569235 L106.597633,13.6561718 Z M106.597633,6.32312483 L106.597633,7.95292349 L103.205369,21.7172188 L98.9934591,21.7172188 L98.9934591,14.6515007 L101.008186,6.32312483 L106.597633,6.32312483 Z M106.597633,0.43630604 L106.597633,4.5097557 L101.46643,4.5097557 L102.474846,0.43630604 L106.597633,0.43630604 Z M106.597633,4.5097557 L106.597633,0.43630604 L108.429204,0.43630604 L107.421489,4.5097557 L106.597633,4.5097557 Z M106.597633,7.95292349 L106.962544,6.32312483 L106.597633,6.32312483 L106.597633,7.95292349 Z M115.848115,6.05091007 L115.848115,9.58272215 C115.210925,9.6734604 114.661454,10.0350174 114.111282,10.577353 C113.649529,11.0317423 113.191988,11.7555544 112.92041,12.660843 L115.848115,12.660843 L115.848115,15.4695409 L112.184273,15.4695409 C112.093747,16.3748295 112.184273,17.0979436 112.457254,17.5516349 C112.827077,18.2782389 113.559004,18.5476617 114.474789,18.5476617 C114.93233,18.5476617 115.390574,18.4569235 115.848115,18.2782389 L115.848115,21.8979973 C115.116189,21.9880376 114.381456,22.0794738 113.468478,22.0794738 C111.448136,22.0794738 109.896565,21.7172188 108.796219,21.1734872 C107.787803,20.6318497 107.054473,19.7265611 106.597633,18.4569235 L106.597633,13.6561718 C107.23763,11.3939973 108.429204,9.58272215 110.264282,8.22513826 C111.818661,6.95689664 113.738652,6.23238658 115.848115,6.05091007 L115.848115,6.05091007 Z M125.285965,6.32312483 L131.056464,6.32312483 L131.240323,16.0104805 L136.736437,6.32312483 L142.140621,6.32312483 L143.059915,16.0104805 L147.913225,6.32312483 L153.685127,6.32312483 L144.160962,21.7172188 L138.843795,21.7172188 L138.023448,12.4807624 L132.614351,21.7172188 L127.300692,21.7172188 L125.285965,6.32312483 Z M115.848115,15.4695409 L115.848115,12.660843 L118.781435,12.660843 C118.964592,11.4833396 118.871961,10.6680913 118.413717,10.216494 C118.049508,9.6734604 117.497932,9.49268188 116.676182,9.49268188 C116.400393,9.49268188 116.123202,9.49268188 115.848115,9.58272215 L115.848115,6.05091007 C116.307061,5.95877584 116.767409,5.95877584 117.224249,5.95877584 C119.515466,5.95877584 121.164581,6.32312483 122.262822,6.95689664 C123.455097,7.58997047 124.188426,8.58809128 124.551232,9.85423893 C124.920353,11.1224805 124.829827,12.7529772 124.277549,14.8364671 L124.188426,15.4695409 L115.848115,15.4695409 Z M115.848115,21.8979973 L115.848115,18.2782389 C116.031974,18.2782389 116.123202,18.1861047 116.213728,18.1861047 C116.582849,18.0053262 117.04039,17.6430711 117.497932,17.1893799 L123.271238,17.7338094 C121.98984,19.2728698 120.612303,20.3589369 119.238976,20.9913128 C118.320384,21.4464 117.224249,21.7172188 115.848115,21.8979973 L115.848115,21.8979973 Z M159.00019,1.52307114 L157.440197,1.52307114 L157.440197,5.32709799 L157.991774,5.32709799 L157.991774,3.60586309 L158.542648,3.60586309 L158.911067,3.60586309 L159.00019,3.69590336 L159.00019,3.1528698 L157.991774,3.1528698 L157.991774,1.88532617 L159.00019,1.88532617 L159.00019,1.52307114 Z M159.00019,0.166185235 L159.00019,0.617084564 C157.353882,0.617084564 156.06687,1.88532617 156.06687,3.42438658 C156.06687,5.05558121 157.353882,6.32312483 159.00019,6.32312483 L159.00019,6.68537987 C157.166514,6.68537987 155.702662,5.23426577 155.702662,3.42438658 C155.702662,1.61450738 157.166514,0.166185235 159.00019,0.166185235 L159.00019,0.166185235 Z M159.00019,3.69590336 L159.090716,3.69590336 C159.185452,3.7873396 159.275978,3.87668188 159.3651,3.96811812 C159.456328,4.14959463 159.546854,4.23893691 159.732116,4.5097557 L160.282991,5.32709799 L160.921584,5.32709799 L160.186149,4.23893691 C160.099834,4.05815839 159.917378,3.87668188 159.821238,3.7873396 C159.732116,3.69590336 159.642994,3.60586309 159.456328,3.60586309 C159.821238,3.51372886 160.099834,3.42438658 160.282991,3.24360805 C160.468253,3.06282953 160.555972,2.78991678 160.555972,2.5184 C160.555972,2.33692349 160.555972,2.15823893 160.37071,1.97466846 C160.282991,1.79458792 160.186149,1.61450738 160.006501,1.61450738 C159.821238,1.52307114 159.546854,1.52307114 159.185452,1.52307114 L159.00019,1.52307114 L159.00019,1.88532617 L159.185452,1.88532617 C159.456328,1.88532617 159.732116,1.97466846 159.821238,2.06680268 C160.006501,2.15823893 160.006501,2.33692349 160.006501,2.5184 C160.006501,2.60983624 160.006501,2.78991678 159.917378,2.87995705 C159.821238,2.97278926 159.732116,3.06282953 159.642994,3.06282953 C159.546854,3.1528698 159.3651,3.1528698 159.090716,3.1528698 L159.00019,3.1528698 L159.00019,3.69590336 Z M159.00019,6.68537987 L159.00019,6.32312483 C160.555972,6.32312483 161.933509,5.05558121 161.933509,3.42438658 C161.933509,1.88532617 160.555972,0.617084564 159.00019,0.617084564 L159.00019,0.166185235 C160.828953,0.166185235 162.299121,1.61450738 162.299121,3.42438658 C162.299121,5.23426577 160.828953,6.68537987 159.00019,6.68537987 L159.00019,6.68537987 Z" id="Fill-1" fill="#A3B1BF" mask="url(#mask-2)"></path>
                    </g>
                    <path d="M20.4201283,27.3703057 L17.3988472,32.9075233 L15.4774892,32.9075233 L15.2011055,29.5840546 L15.1085099,29.5840546 L13.3681341,32.9075233 L11.4432687,32.9075233 L10.6232368,27.3703057 L12.5459978,27.3703057 L12.728383,30.8787278 L14.6504424,27.3703057 L16.4841152,27.3703057 L16.8516916,30.7862511 L18.3142806,27.3703057 L20.4201283,27.3703057 Z M30.5881036,31.0608357 L30.2198257,32.9075233 L30.5881036,32.9075233 L30.5881036,31.0608357 Z M30.5881036,27.3703057 L30.5881036,28.1086963 L27.9294884,32.9075233 L26.0067275,32.9075233 L25.7303437,29.5840546 L25.6426585,29.5840546 L23.9001783,32.9075233 L21.9802233,32.9075233 L21.2436677,27.3703057 L23.075236,27.3703057 L23.2590242,30.8787278 L25.1831881,27.3703057 L27.012652,27.3703057 L27.3802284,30.7862511 L28.8442204,27.3703057 L30.5881036,27.3703057 Z M9.79759299,27.3703057 L6.77771486,32.9075233 L4.85214797,32.9075233 L4.57786868,29.5840546 L4.489482,29.5840546 L2.74770328,32.9075233 L0.82143491,32.9075233 L0,27.3703057 L1.92276096,27.3703057 L2.10584765,30.8787278 L4.02580269,27.3703057 L5.86157994,27.3703057 L6.22354443,30.7862511 L7.69174534,27.3703057 L9.79759299,27.3703057 Z M30.5881036,28.1086963 L30.5881036,27.3703057 L30.9507695,27.3703057 L30.5881036,28.1086963 Z M30.5881036,32.9075233 L30.5881036,31.0608357 L30.6778932,30.7862511 L32.8756349,30.7862511 L32.4175675,32.9075233 L30.5881036,32.9075233 Z M38.0055696,25.2483221 L38.0055696,25.8017594 L37.6379933,27.7409237 C37.7305888,27.646313 37.9094666,27.5545477 38.0055696,27.5545477 L38.0055696,28.6614221 C37.7305888,28.7546101 37.5482036,28.9395634 37.3616095,29.2169934 C37.1743139,29.6772426 37.0859273,30.1396259 37.0859273,30.6005865 C37.0859273,30.9697817 37.0859273,31.152601 37.2725214,31.3382656 C37.4535036,31.5246417 37.6379933,31.6156956 37.8210799,31.6156956 C37.9094666,31.6156956 37.9094666,31.6156956 38.0055696,31.5246417 L38.0055696,33 C37.3616095,32.9075233 36.9028406,32.5390394 36.5380702,31.9841795 L36.355685,32.9075233 L34.4294166,32.9075233 L35.9874071,25.2483221 L38.0055696,25.2483221 Z M47.4348848,27.462071 L46.609241,29.0320401 L46.246575,29.0320401 C45.7885075,29.0320401 45.5128253,29.1238054 45.2357401,29.400524 C44.9649682,29.6772426 44.7797771,30.1396259 44.6885844,30.7862511 L44.23192,32.9075233 L42.1218634,32.9075233 L43.3143821,27.3703057 L45.2357401,27.3703057 L45.0540563,28.4786029 C45.3304401,28.0176423 45.6047194,27.646313 45.8797001,27.5545477 C46.151875,27.3703057 46.4275572,27.2764064 46.6997321,27.2764064 C46.8870277,27.2764064 47.1627099,27.2764064 47.4348848,27.462071 L47.4348848,27.462071 Z M38.0055696,25.8017594 L38.0055696,25.2483221 L38.0967622,25.2483221 L38.0055696,25.8017594 Z M38.0055696,33 L38.0055696,31.5246417 C38.277043,31.5246417 38.4580252,31.3382656 38.6432163,30.9697817 C38.8305119,30.6005865 38.9174956,30.1396259 38.9174956,29.5840546 C38.9174956,28.9395634 38.7344089,28.6614221 38.1851489,28.6614221 L38.0055696,28.6614221 L38.0055696,27.5545477 C38.0967622,27.462071 38.1851489,27.3703057 38.277043,27.3703057 C38.4580252,27.2764064 38.7344089,27.2764064 39.1005823,27.2764064 C39.7445424,27.2764064 40.2019084,27.462071 40.4761877,27.9237429 C40.843764,28.2943609 41.0261492,28.8463754 41.0261492,29.5840546 C41.0261492,30.4163445 40.750467,31.247923 40.293101,31.8909915 C39.8336306,32.6322275 39.1917749,33 38.3668326,33 L38.0055696,33 Z M51.0096348,27.2764064 L51.0096348,28.6614221 C50.7318481,28.7546101 50.4575688,28.9395634 50.2751836,29.3101814 C50.0927984,29.6772426 49.9069058,30.1396259 49.9069058,30.5081098 C49.9069058,30.7862511 50.0002028,31.0608357 50.1804836,31.247923 C50.3663762,31.5246417 50.64276,31.6156956 50.8251452,31.6156956 C50.9184422,31.6156956 51.0096348,31.6156956 51.0096348,31.5246417 L51.0096348,33 L50.7318481,33 C49.7231176,33 49.0847694,32.7247041 48.625299,32.2601868 C48.1672315,31.8013603 47.8950567,31.247923 47.8950567,30.5081098 C47.8950567,29.9532499 48.0774419,29.400524 48.3496167,28.9395634 C48.625299,28.3868376 48.9914724,28.0176423 49.5421354,27.7409237 C49.9069058,27.462071 50.4575688,27.2764064 51.0096348,27.2764064 L51.0096348,27.2764064 Z M51.0096348,33 L51.0096348,31.5246417 C51.3708978,31.5246417 51.5525815,31.3382656 51.7384742,30.9697817 C52.0148579,30.6005865 52.1060505,30.1396259 52.1060505,29.6772426 C52.1060505,29.3101814 52.0148579,29.0320401 51.8303682,28.9395634 C51.6500875,28.7546101 51.4655978,28.6614221 51.2811082,28.6614221 L51.0096348,28.6614221 L51.0096348,27.2764064 L51.3708978,27.2764064 C52.2905401,27.2764064 53.0228869,27.5545477 53.4781484,28.0176423 C53.9362159,28.4786029 54.12281,29.1238054 54.12281,29.771142 C54.12281,30.2313912 54.0309159,30.7862511 53.7531292,31.3382656 C53.4781484,31.8013603 53.1126765,32.2601868 52.6553106,32.5390394 C52.1979446,32.815758 51.6500875,32.9075233 51.0096348,33 L51.0096348,33 Z M58.516189,29.4951347 L58.516189,30.6005865 C58.1507171,30.6916404 57.9613171,30.7862511 57.7810363,30.8787278 C57.6954556,30.9697817 57.6007556,31.152601 57.6007556,31.247923 C57.6007556,31.4300309 57.6007556,31.6156956 57.7810363,31.7067495 C57.8736319,31.8013603 58.0567186,31.8909915 58.2398053,31.8909915 C58.3316994,31.8909915 58.422892,31.8013603 58.516189,31.8013603 L58.516189,32.7247041 C58.2398053,32.9075233 57.8736319,33 57.4162659,33 C56.7779177,33 56.3184473,32.815758 55.9529754,32.5390394 C55.6779946,32.1691328 55.4949079,31.8013603 55.4949079,31.4300309 C55.4949079,30.8787278 55.6779946,30.5081098 55.9529754,30.2313912 C56.2244488,30.0464379 56.5029369,29.8621959 56.9603029,29.771142 C57.3278793,29.6772426 57.8736319,29.5840546 58.516189,29.4951347 L58.516189,29.4951347 Z M58.516189,27.2764064 L58.516189,28.5696568 L58.422892,28.5696568 C58.3316994,28.6614221 58.1507171,28.8463754 58.0567186,29.1238054 L56.1381665,28.8463754 C56.2244488,28.3868376 56.5029369,27.9237429 56.9603029,27.646313 C57.3278793,27.462071 57.8736319,27.3703057 58.516189,27.2764064 L58.516189,27.2764064 Z M58.516189,32.7247041 L58.516189,31.8013603 C58.6985742,31.7067495 58.8837654,31.6156956 58.973555,31.5246417 C59.2478343,31.3382656 59.4330254,30.9697817 59.524218,30.4163445 C59.1559402,30.5081098 58.7904683,30.5081098 58.516189,30.6005865 L58.516189,29.4951347 C59.1559402,29.4951347 59.524218,29.400524 59.7087077,29.3101814 C59.7935869,29.1238054 59.7935869,29.0320401 59.7935869,28.9395634 C59.7935869,28.8463754 59.7087077,28.6614221 59.6133062,28.6614221 C59.4330254,28.5696568 59.2478343,28.4786029 59.066852,28.4786029 C58.8837654,28.4786029 58.6985742,28.5696568 58.516189,28.5696568 L58.516189,27.2764064 L59.066852,27.2764064 C60.1618648,27.2764064 60.8956145,27.3703057 61.2638923,27.646313 C61.6286627,27.9237429 61.8145553,28.2943609 61.8145553,28.8463754 C61.8145553,29.2169934 61.7219598,29.771142 61.5388731,30.5081098 C61.3529805,31.3382656 61.2638923,31.8013603 61.2638923,32.0759448 C61.2638923,32.3555088 61.3529805,32.6322275 61.4441731,32.9075233 L59.3369224,32.9075233 L59.3369224,32.2601868 C59.066852,32.4472741 58.7904683,32.6322275 58.516189,32.7247041 L58.516189,32.7247041 Z M66.3012314,27.2764064 L66.3012314,28.6614221 C66.1153388,28.7546101 65.935058,28.9395634 65.7540758,29.2169934 C65.4762891,29.6772426 65.3864994,30.1396259 65.3864994,30.6916404 C65.3864994,30.9697817 65.4762891,31.247923 65.5681832,31.3382656 C65.7540758,31.5246417 65.8438654,31.6156956 66.1153388,31.6156956 L66.3012314,31.6156956 L66.3012314,32.7247041 C66.3012314,32.815758 66.2065314,32.815758 66.1153388,32.815758 C65.8438654,32.9075233 65.5681832,33 65.2925009,33 C64.6513468,33 64.1953838,32.815758 63.8292104,32.3555088 C63.5521252,31.9841795 63.3690385,31.4300309 63.3690385,30.6916404 C63.3690385,29.771142 63.5521252,28.9395634 64.0992808,28.2943609 C64.5608556,27.5545477 65.1999054,27.2764064 65.935058,27.2764064 L66.3012314,27.2764064 Z M81.2266546,27.3703057 L80.0390463,32.9075233 L77.9324972,32.9075233 L79.118001,27.3703057 L81.2266546,27.3703057 Z M81.591425,25.2483221 L81.3199517,26.7243918 L79.2134025,26.7243918 L79.4897863,25.2483221 L81.591425,25.2483221 Z M77.5621149,27.3703057 L74.0848708,32.9075233 L72.2554069,32.9075233 L71.2452735,27.3703057 L73.1694374,27.3703057 L73.5349093,30.8787278 L75.3692836,27.3703057 L77.5621149,27.3703057 Z M66.3012314,32.7247041 L66.3012314,31.6156956 C66.5727048,31.5246417 66.8490885,31.3382656 67.0321752,30.9697817 C67.2166648,30.5081098 67.3064545,30.0464379 67.3064545,29.5840546 C67.3064545,29.3101814 67.2166648,29.0320401 67.0321752,28.9395634 C66.8490885,28.7546101 66.6688077,28.6614221 66.4829151,28.6614221 L66.3012314,28.6614221 L66.3012314,27.2764064 C66.9423856,27.3703057 67.3997515,27.646313 67.6740308,28.1086963 L68.313782,25.2483221 L70.3291385,25.2483221 L68.7718495,32.9075233 L66.8490885,32.9075233 L66.9423856,32.3555088 L66.9423856,32.2601868 C66.6688077,32.4472741 66.4829151,32.6322275 66.3012314,32.7247041 L66.3012314,32.7247041 Z M85.6214366,27.2764064 L85.6214366,28.4786029 C85.4390514,28.5696568 85.2580692,28.6614221 85.0735795,28.7546101 C84.8897913,28.9395634 84.7060032,29.3101814 84.6155121,29.6772426 L85.6214366,29.6772426 L85.6214366,30.6916404 L84.4331268,30.6916404 C84.5264239,31.4300309 84.8021061,31.8013603 85.4390514,31.8013603 C85.5323485,31.8013603 85.5323485,31.8013603 85.6214366,31.7067495 L85.6214366,33 L85.3485603,33 C84.2486372,33 83.5183949,32.7247041 83.0603274,32.2601868 C82.6001555,31.8013603 82.4149644,31.152601 82.4149644,30.5081098 C82.4149644,29.9532499 82.5096644,29.4951347 82.6892437,29.1238054 C82.8758378,28.6614221 83.2427126,28.2943609 83.5183949,28.0176423 C83.8824638,27.7409237 84.2486372,27.5545477 84.6155121,27.3703057 C84.8897913,27.3703057 85.2580692,27.2764064 85.6214366,27.2764064 L85.6214366,27.2764064 Z M85.6214366,30.6916404 L85.6214366,29.6772426 L86.6308686,29.6772426 C86.6308686,29.5840546 86.7241656,29.4951347 86.7241656,29.3101814 C86.7241656,29.0320401 86.6308686,28.8463754 86.4498863,28.6614221 C86.2639937,28.5696568 86.0830115,28.4786029 85.8045233,28.4786029 L85.6214366,28.4786029 L85.6214366,27.2764064 L85.8964174,27.2764064 C86.9037449,27.2764064 87.6381961,27.462071 88.0955621,27.9237429 C88.4603325,28.3868376 88.7339103,28.9395634 88.7339103,29.5840546 C88.7339103,29.771142 88.6448221,30.1396259 88.5529281,30.6916404 L85.6214366,30.6916404 Z M85.6214366,33 L85.6214366,31.7067495 C85.8964174,31.7067495 86.1735026,31.5246417 86.3544848,31.247923 L88.3698414,31.4300309 C88.0955621,31.9841795 87.7272843,32.4472741 87.1801286,32.6322275 C86.8132538,32.815758 86.2639937,33 85.6214366,33 L85.6214366,33 Z M99.7247234,31.0608357 L99.2673575,32.9075233 L99.7247234,32.9075233 L99.7247234,31.0608357 Z M99.7247234,27.3703057 L99.7247234,28.1086963 L96.9805276,32.9075233 L95.1447503,32.9075233 L94.7841888,29.5840546 L92.9498145,32.9075233 L91.0235461,32.9075233 L90.2042157,27.3703057 L92.1290811,27.3703057 L92.3072574,30.8787278 L94.2335258,27.3703057 L96.1541823,27.3703057 L96.4270586,30.7862511 L97.894558,27.3703057 L99.7247234,27.3703057 Z M110.347259,29.3101814 L108.426602,29.400524 C108.334708,28.9395634 107.967132,28.6614221 107.417872,28.6614221 C106.9577,28.6614221 106.591526,28.8463754 106.320755,29.3101814 C106.047878,29.6772426 105.862687,30.1396259 105.862687,30.6916404 C105.862687,30.9697817 105.950372,31.152601 106.132758,31.3382656 C106.410544,31.5246417 106.591526,31.6156956 106.778121,31.6156956 C107.325978,31.6156956 107.782642,31.247923 108.059026,30.6916404 L109.985294,30.8787278 C109.526525,32.2601868 108.426602,33 106.683421,33 C104.76557,33 103.850137,32.1691328 103.850137,30.6005865 C103.850137,29.6772426 104.123013,28.9395634 104.76557,28.2943609 C105.402515,27.5545477 106.320755,27.2764064 107.417872,27.2764064 C108.241411,27.2764064 108.975862,27.462071 109.430422,27.7409237 C109.889191,28.1086963 110.259574,28.6614221 110.347259,29.3101814 L110.347259,29.3101814 Z M99.7247234,28.1086963 L99.7247234,27.3703057 L100.0923,27.3703057 L99.7247234,28.1086963 Z M99.7247234,32.9075233 L99.7247234,31.0608357 L99.7247234,30.7862511 L102.015762,30.7862511 L101.558396,32.9075233 L99.7247234,32.9075233 Z M114.652251,27.2764064 L114.652251,28.6614221 C114.288884,28.7546101 114.10229,28.9395634 113.916397,29.3101814 C113.646327,29.6772426 113.553029,30.1396259 113.553029,30.5081098 C113.553029,30.7862511 113.646327,31.0608357 113.827309,31.247923 C114.011798,31.5246417 114.192781,31.6156956 114.468463,31.6156956 C114.558954,31.6156956 114.558954,31.6156956 114.652251,31.5246417 L114.652251,33 L114.288884,33 C113.369241,33 112.635492,32.7247041 112.181633,32.2601868 C111.724267,31.8013603 111.540479,31.247923 111.540479,30.5081098 C111.540479,29.9532499 111.626761,29.400524 111.907354,28.9395634 C112.181633,28.3868376 112.635492,28.0176423 113.098469,27.7409237 C113.553029,27.462071 114.10229,27.2764064 114.652251,27.2764064 L114.652251,27.2764064 Z M145.053761,28.2011729 C145.605125,27.5545477 146.338875,27.2764064 147.159608,27.2764064 C147.617676,27.2764064 147.988759,27.3703057 148.257427,27.646313 C148.444722,27.9237429 148.629914,28.2011729 148.629914,28.5696568 C148.629914,28.7546101 148.535214,29.2169934 148.444722,29.8621959 L147.804971,32.9075233 L145.697721,32.9075233 L146.246279,30.3252906 C146.338875,29.6772426 146.425157,29.3101814 146.425157,29.2169934 C146.425157,28.9395634 146.246279,28.7546101 145.974806,28.7546101 C145.697721,28.7546101 145.42274,28.9395634 145.144252,29.2169934 C144.962568,29.4951347 144.784392,29.9532499 144.688289,30.5081098 L144.139029,32.9075233 L142.034584,32.9075233 L143.226401,27.3703057 L145.144252,27.3703057 L144.962568,28.2011729 L145.053761,28.2011729 Z M141.11915,29.3101814 L139.290388,29.400524 C139.195688,28.9395634 138.828112,28.6614221 138.276046,28.6614221 C137.81868,28.6614221 137.362717,28.8463754 137.08984,29.3101814 C136.814158,29.6772426 136.723667,30.1396259 136.723667,30.6916404 C136.723667,30.9697817 136.814158,31.152601 136.999349,31.3382656 C137.178929,31.5246417 137.362717,31.6156956 137.6391,31.6156956 C138.191166,31.6156956 138.649234,31.247923 138.920006,30.6916404 L140.846274,30.8787278 C140.384699,32.2601868 139.290388,33 137.547206,33 C135.622341,33 134.709713,32.1691328 134.709713,30.6005865 C134.709713,29.6772426 134.983993,28.9395634 135.622341,28.2943609 C136.266301,27.5545477 137.178929,27.2764064 138.276046,27.2764064 C139.1066,27.2764064 139.746351,27.462071 140.291402,27.7409237 C140.74947,28.1086963 141.025853,28.6614221 141.11915,29.3101814 L141.11915,29.3101814 Z M132.784848,30.7862511 L132.328885,32.9075233 L130.128337,32.9075233 L130.5843,30.7862511 L132.784848,30.7862511 Z M125.365979,28.2011729 C125.734257,27.8319776 126.101833,27.5545477 126.464499,27.462071 C126.738778,27.3703057 127.107056,27.2764064 127.47323,27.2764064 C128.02249,27.2764064 128.390066,27.3703057 128.573153,27.646313 C128.846029,27.9237429 128.935117,28.2011729 128.935117,28.6614221 L128.935117,29.3101814 L128.115787,32.9075233 L126.00573,32.9075233 L126.557796,30.5081098 C126.64969,29.9532499 126.738778,29.5840546 126.738778,29.4951347 L126.738778,29.2169934 C126.738778,28.9395634 126.64969,28.7546101 126.374008,28.7546101 C126.00573,28.7546101 125.821942,28.9395634 125.548364,29.2169934 C125.365979,29.4951347 125.180788,29.8621959 125.093103,30.4163445 L124.545246,32.9075233 L122.527083,32.9075233 L122.987255,30.6005865 C123.077746,29.9532499 123.168237,29.5840546 123.168237,29.4951347 C123.258728,29.400524 123.258728,29.3101814 123.258728,29.2169934 C123.258728,28.9395634 123.077746,28.7546101 122.802765,28.7546101 C122.616171,28.7546101 122.347504,28.9395634 122.164417,29.1238054 C121.887332,29.3101814 121.702141,29.6772426 121.614456,30.2313912 L121.06239,32.9075233 L118.956542,32.9075233 L120.149762,27.3703057 L122.072523,27.3703057 L121.887332,28.2011729 C122.527083,27.5545477 123.168237,27.2764064 123.902688,27.2764064 C124.269563,27.2764064 124.545246,27.3703057 124.819525,27.462071 C125.093103,27.646313 125.278294,27.9237429 125.365979,28.2011729 L125.365979,28.2011729 Z M114.652251,33 L114.652251,31.5246417 C114.927232,31.5246417 115.204317,31.3382656 115.387404,30.9697817 C115.664489,30.6005865 115.752174,30.1396259 115.752174,29.6772426 C115.752174,29.3101814 115.664489,29.0320401 115.475089,28.9395634 C115.293405,28.7546101 115.109617,28.6614221 114.927232,28.6614221 L114.652251,28.6614221 L114.652251,27.2764064 L114.927232,27.2764064 C115.933156,27.2764064 116.666205,27.5545477 117.123571,28.0176423 C117.580937,28.4786029 117.764725,29.1238054 117.764725,29.771142 C117.764725,30.2313912 117.674234,30.7862511 117.399954,31.3382656 C117.123571,31.8013603 116.7588,32.2601868 116.208137,32.5390394 C115.752174,32.815758 115.293405,32.9075233 114.652251,33 L114.652251,33 Z" id="Fill-4" fill="#A3B1BF"></path>
                </g>
            </g>
        </g>
    </g>
</svg>