<?xml version="1.0" encoding="UTF-8"?>
<svg width="76px" height="68px" viewBox="0 0 76 68" version="1.1" xmlns="http://www.w3.org/2000/svg" xmlns:xlink="http://www.w3.org/1999/xlink">
    <!-- Generator: Sketch 49.3 (51167) - http://www.bohemiancoding.com/sketch -->
    <title>Group 20</title>
    <desc>Created with Sketch.</desc>
    <defs></defs>
    <g id="Page-1" stroke="none" stroke-width="1" fill="none" fill-rule="evenodd">
        <g id="首页" transform="translate(-1112.000000, -1054.000000)">
            <g id="自然好用的设计" transform="translate(184.000000, 983.000000)">
                <g id="可视化语言" transform="translate(877.000000, 16.000000)">
                    <g id="Group-20" transform="translate(52.000000, 56.000000)">
                        <g id="插图-响应式">
                            <g id="Group-19">
                                <path d="M5.25443787,56.5714286 L47.8737673,56.5714286 C50.7783037,56.5714286 53.1282051,54.1995536 53.1282051,51.2678571 L53.1282051,24.1607143 C53.1282051,21.2290179 50.7783037,18.8571429 47.8737673,18.8571429 L5.25443787,18.8571429 C2.34990138,18.8571429 0,21.2290179 0,24.1607143 L0,51.2678571 C0,54.1995536 2.34990138,56.5714286 5.25443787,56.5714286 Z M4.67061144,23.5714286 L48.4575937,23.5714286 L48.4575937,51.8571429 L4.67061144,51.8571429 L4.67061144,23.5714286 Z" id="Shape" stroke="#FFFFFF" stroke-width="1.60285714" fill="#1C2833" fill-rule="nonzero"></path>
                                <path d="M68.796875,0 L42.203125,0 C39.3269531,0 37,2.371875 37,5.30357143 L37,11.7857143 C37,13.0895089 38.0333984,14.1428571 39.3125,14.1428571 C40.5916016,14.1428571 41.625,13.0895089 41.625,11.7857143 L41.625,4.71428571 L69.375,4.71428571 L69.375,47.1428571 L60.125,47.1428571 C58.8458984,47.1428571 57.8125,48.1962054 57.8125,49.5 C57.8125,50.8037946 58.8458984,51.8571429 60.125,51.8571429 L69.375,51.8571429 L69.375,61.2857143 L59.6914062,61.2857143 C59.7130859,61.2857143 59.7347656,61.3004464 59.7492187,61.3151786 C58.6507812,61.4993304 57.8125,62.4716518 57.8125,63.6428571 C57.8125,64.8140625 58.6507813,65.7863839 59.7492187,65.9705357 C59.7347656,65.9926339 59.7130859,66 59.6914062,66 L68.796875,66 C71.6730469,66 74,63.628125 74,60.6964286 L74,5.30357143 C74,2.371875 71.6730469,0 68.796875,0 Z" id="Shape" stroke="#FFFFFF" stroke-width="1.60285714" fill="#1C2833" fill-rule="nonzero"></path>
                                <rect id="Rectangle-9" fill="#2F54EB" x="8" y="27" width="37" height="21" rx="1"></rect>
                            </g>
                            <ellipse id="Oval" stroke="#FFFFFF" stroke-width="1.60285714" fill="#1C2833" fill-rule="nonzero" cx="57.3974359" cy="56.1" rx="2.37179487" ry="2.35714286"></ellipse>
                        </g>
                        <path d="M53.1282051,63.6428571 C53.1282051,62.3390625 52.0846154,61.2857143 50.7928994,61.2857143 L42.035503,61.2857143 L37.4378698,61.2857143 L37.3940828,61.2857143 L2.33530572,61.2857143 C1.04358974,61.2857143 0,62.3390625 0,63.6428571 C0,64.9466518 1.04358974,66 2.33530572,66 L50.7928994,66 C52.0846154,66 53.1282051,64.9466518 53.1282051,63.6428571 Z" id="Shape" stroke="#FFFFFF" stroke-width="1.60285714" fill="#1C2833" fill-rule="nonzero"></path>
                    </g>
                </g>
            </g>
        </g>
    </g>
</svg>