<?xml version="1.0" encoding="UTF-8" standalone="no"?>
<svg width="30px" height="30px" viewBox="0 0 30 30" version="1.1" xmlns="http://www.w3.org/2000/svg" xmlns:xlink="http://www.w3.org/1999/xlink">
    <!-- Generator: Sketch 48 (47235) - http://www.bohemiancoding.com/sketch -->
    <title>图形</title>
    <desc>Created with Sketch.</desc>
    <defs>
        <linearGradient x1="62.1023273%" y1="0%" x2="108.19718%" y2="37.8635764%" id="linearGradient-1">
            <stop stop-color="#4285EB" offset="0%"></stop>
            <stop stop-color="#2EC7FF" offset="100%"></stop>
        </linearGradient>
        <linearGradient x1="69.644116%" y1="0%" x2="54.0428975%" y2="108.456714%" id="linearGradient-2">
            <stop stop-color="#29CDFF" offset="0%"></stop>
            <stop stop-color="#148EFF" offset="37.8600687%"></stop>
            <stop stop-color="#0A60FF" offset="100%"></stop>
        </linearGradient>
        <linearGradient x1="69.6908165%" y1="-12.9743587%" x2="16.7228981%" y2="117.391248%" id="linearGradient-3">
            <stop stop-color="#FA816E" offset="0%"></stop>
            <stop stop-color="#F74A5C" offset="41.472606%"></stop>
            <stop stop-color="#F51D2C" offset="100%"></stop>
        </linearGradient>
        <linearGradient x1="68.1279872%" y1="-35.6905737%" x2="30.4400914%" y2="114.942679%" id="linearGradient-4">
            <stop stop-color="#FA8E7D" offset="0%"></stop>
            <stop stop-color="#F74A5C" offset="51.2635191%"></stop>
            <stop stop-color="#F51D2C" offset="100%"></stop>
        </linearGradient>
    </defs>
    <g id="备注：体验云导航" stroke="none" stroke-width="1" fill="none" fill-rule="evenodd" transform="translate(-779.000000, -1356.000000)">
        <g id="技术方案下拉" transform="translate(752.000000, 1321.000000)">
            <g id="图形" transform="translate(27.000000, 35.000000)">
                <path d="M13.6857039,0.534049582 L0.530436791,13.7198153 C-0.176812264,14.428704 -0.176812264,15.5736791 0.530436791,16.2825678 L13.6857039,29.4683335 C14.392953,30.1772222 15.5352797,30.1772222 16.2425288,29.4683335 L21.7583444,23.9397303 C22.3917375,23.3048687 22.3917375,22.2755547 21.7583444,21.6406931 C21.1249512,21.0058315 20.098018,21.0058315 19.4646248,21.6406931 L15.2831292,25.8318829 C15.107096,26.0083242 14.8399299,26.0083242 14.6638967,25.8318829 L4.15847628,15.3021072 C3.98244311,15.1256659 3.98244311,14.8578804 4.15847628,14.6814391 L14.6638967,4.15166334 C14.8399299,3.97522207 15.107096,3.97522207 15.2831292,4.15166334 L19.4646248,8.34285315 C20.098018,8.97771474 21.1249512,8.97771474 21.7583444,8.34285315 C22.3917375,7.70799156 22.3917375,6.67867755 21.7583444,6.04381596 L16.2431367,0.51581423 C15.5329838,-0.177733841 14.3902393,-0.172119166 13.6857039,0.534049582 Z" id="Shape" fill="url(#linearGradient-1)" fill-rule="nonzero"></path>
                <path d="M13.6857039,0.534049582 L0.530436791,13.7198153 C-0.176812264,14.428704 -0.176812264,15.5736791 0.530436791,16.2825678 L13.6857039,29.4683335 C14.392953,30.1772222 15.5352797,30.1772222 16.2425288,29.4683335 L21.7583444,23.9397303 C22.3917375,23.3048687 22.3917375,22.2755547 21.7583444,21.6406931 C21.1249512,21.0058315 20.098018,21.0058315 19.4646248,21.6406931 L15.2831292,25.8318829 C15.107096,26.0083242 14.8399299,26.0083242 14.6638967,25.8318829 L4.15847628,15.3021072 C3.98244311,15.1256659 3.98244311,14.8578804 4.15847628,14.6814391 L14.6638967,4.15166334 C15.1022136,3.77260554 15.817375,3.00483313 16.867593,2.82526479 C17.6480964,2.69181278 18.5013987,2.98553825 19.4274998,3.70644119 C18.8083431,3.08584818 17.7468887,2.02230586 16.2431367,0.51581423 C15.5329838,-0.177733841 14.3902393,-0.172119166 13.6857039,0.534049582 Z" id="Shape" fill="url(#linearGradient-2)" fill-rule="nonzero"></path>
                <path d="M22.9936515,20.4988031 C23.6344132,21.1345453 24.6732931,21.1345453 25.3140547,20.4988031 L29.430124,16.4149773 C30.1456008,15.7051053 30.1456008,14.5585421 29.4302077,13.8487529 L25.278257,9.7439348 C24.6359784,9.10894723 23.5967686,9.10986292 22.9556278,9.74598137 C22.3148661,10.3817236 22.3148661,11.4124653 22.9556278,12.0482075 L25.7598782,14.8304907 C25.9379592,15.0071767 25.9379592,15.2753337 25.7598782,15.4520197 L22.9936515,18.1965769 C22.3528898,18.8323191 22.3528898,19.8630609 22.9936515,20.4988031 Z" id="Shape" fill="url(#linearGradient-3)" fill-rule="nonzero"></path>
                <ellipse id="Combined-Shape" fill="url(#linearGradient-4)" cx="15.1042047" cy="15.2439024" rx="3.50417548" ry="3.53658537"></ellipse>
            </g>
        </g>
    </g>
</svg>