<?xml version="1.0" encoding="UTF-8"?>
<svg width="180px" height="35px" viewBox="0 0 180 35" version="1.1" xmlns="http://www.w3.org/2000/svg" xmlns:xlink="http://www.w3.org/1999/xlink">
    <!-- Generator: Sketch 47.1 (45422) - http://www.bohemiancoding.com/sketch -->
    <title>知己基因</title>
    <desc>Created with Sketch.</desc>
    <defs>
        <polygon id="path-1" points="10.3344854 3.99229881 0.187178774 3.99229881 0.187178774 0.245093878 10.3344854 0.245093878 10.3344854 3.99229881"></polygon>
    </defs>
    <g id="Page-1" stroke="none" stroke-width="1" fill="none" fill-rule="evenodd">
        <g id="Web" transform="translate(-288.000000, -6010.000000)">
            <g id="特别鸣谢" transform="translate(0.000000, 5835.000000)">
                <g id="知己基因" transform="translate(288.000000, 175.000000)">
                    <g id="Group-6">
                        <path d="M26.2762962,8.05965283 C31.0138717,4.67717767 35.9001453,2.69267247 40.8239283,3.03767362 C47.4416642,3.50111298 50.8895179,6.17395703 50.8895179,6.17395703 C49.0200745,5.61370443 38.98965,2.72860316 28.8711453,9.82092199 C14.4537915,19.9260956 2.27595189,13.3763968 1.80708396,13.3441257 C1.80708396,13.3441257 14.31715,16.5978492 26.2762962,8.05965283 Z" id="Fill-1" fill="#A3B1BF"></path>
                        <path d="M7.93173821,0.6462201 C10.2928231,1.34686854 12.9134599,3.96847809 15.3961156,9.62124051 C18.3459646,16.3356217 22.5433373,26.8583233 28.6540259,31.2568385 C25.7497241,27.1717188 23.478059,19.9622925 20.7405401,10.6811958 C19.1912665,5.4276633 14.3203986,-2.28878491 7.93173821,0.6462201" id="Fill-3" fill="#A3B1BF"></path>
                        <g id="Group-7" transform="translate(0.000000, 0.404220)" fill="#A3B1BF">
                            <path d="M-3.3490566e-05,9.08447593 C2.79977783,4.06682172 5.4780184,1.36969118 7.93187217,0.241866769 C3.60824009,-1.0416573 0.153353302,4.13269465 -3.3490566e-05,9.08447593" id="Fill-5"></path>
                        </g>
                        <g id="Group-10" transform="translate(28.466981, 31.011844)">
                            <mask id="mask-2" fill="white">
                                <use xlink:href="#path-1"></use>
                            </mask>
                            <g id="Clip-9"></g>
                            <path d="M0.187178774,0.245093878 C2.12795708,2.9741628 4.35106085,4.30991945 7.18737689,3.92832222 C8.50590047,3.75099761 9.5136316,2.66309619 10.3344854,1.0452171 C9.41315991,1.63840616 8.38299009,2.04861486 7.21316462,2.20564528 C4.62568349,2.55330797 2.29340047,1.76083666 0.187178774,0.245093878" id="Fill-8" fill="#A3B1BF" mask="url(#mask-2)"></path>
                        </g>
                        <path d="M43.1050042,17.3319664 C41.0654288,22.0169291 41.1414524,27.4487843 38.8014665,32.0572279 C44.2507165,28.553653 44.8833533,21.9530523 46.8378627,16.9992749 C48.580042,12.5774712 50.8774948,10.0975883 53.2050892,8.68830682 C46.1111175,10.7513272 45.0019099,12.9760357 43.1050042,17.3319664" id="Fill-11" fill="#A3B1BF"></path>
                    </g>
                    <g id="Group-26" transform="translate(68.250000, 6.000000)" fill="#A3B1BF">
                        <path d="M15.9382257,20.8512384 L19.3554214,20.8512384 C20.5980629,20.9214957 21.1839304,20.332542 21.1163093,19.0862985 L21.1163093,3.92993482 L15.9382257,3.92993482 L15.9382257,20.8512384 Z M13.3491839,22.512988 L13.3491839,2.06125557 L23.7053511,2.06125557 L23.7053511,19.0862985 C23.7729723,21.4401921 22.5659208,22.5805009 20.0806378,22.512988 L13.3491839,22.512988 Z M0.507733629,8.28972899 L0.507733629,6.62935163 C2.09532519,5.03758491 2.92375287,2.89199314 2.99329042,0.192850772 L5.37508842,0.192850772 C5.30555087,1.09274786 5.20206585,1.88945455 5.06463337,2.58050086 L11.6920548,2.58050086 L11.6920548,4.34489194 L8.27485905,4.34489194 L8.27485905,10.0549434 L8.27485905,10.6776535 L12.4172712,10.6776535 L12.4172712,12.4425935 L8.37834406,12.4425935 C8.51605031,15.8341544 9.89612431,18.9828336 12.52103,21.889729 L12.52103,23.9661612 C9.62098557,21.889729 7.75688642,19.5377564 6.92845875,16.9069503 C5.82352349,19.8138456 3.78612801,22.1649949 0.818462449,23.9661612 L0.818462449,21.889729 C3.71823307,19.1905866 5.30555087,16.0419074 5.58205845,12.4425935 L0.714977432,12.4425935 L0.714977432,10.6776535 L5.58205845,10.6776535 C5.58205845,10.6095918 5.61627969,10.5058525 5.68581724,10.3664357 L5.68581724,10.0549434 L5.68581724,4.34489194 L4.44317573,4.34489194 C3.68236922,5.93830532 2.37210655,7.25178731 0.507733629,8.28972899 L0.507733629,8.28972899 Z" id="Fill-13"></path>
                        <path d="M48.6212579,23.0317667 C46.0664373,23.1001029 44.823522,21.9581475 44.8930596,19.606175 L44.8930596,3.30675815 L37.4369367,3.30675815 L37.4369367,10.2627787 C37.8514243,16.6309434 35.4337625,21.1982161 30.1880577,23.9659691 L30.1880577,21.9932762 C33.2945246,19.6413036 34.7444099,16.1460034 34.5371661,11.5084734 L34.5371661,1.33461407 L47.793104,1.33461407 L47.793104,19.5018868 C47.6534813,20.8172899 48.310529,21.4402744 49.7604144,21.3708405 C51.0030559,21.4402744 51.5889234,20.8513208 51.5210285,19.606175 L51.5210285,18.6716981 L53.5920977,18.6716981 L53.5920977,20.2280617 C53.6602664,22.1650772 52.5211099,23.1001029 50.174902,23.0317667 L48.6212579,23.0317667 Z" id="Fill-15"></path>
                        <path d="M66.1846911,12.0271698 L75.7124306,12.0271698 L75.7124306,10.158765 L66.1846911,10.158765 L66.1846911,12.0271698 Z M66.1846911,8.70531732 L75.7124306,8.70531732 L75.7124306,6.83636364 L66.1846911,6.83636364 L66.1846911,8.70531732 Z M66.1846911,5.38346484 L75.7124306,5.38346484 L75.7124306,3.51451115 L66.1846911,3.51451115 L66.1846911,5.38346484 Z M72.2952349,14.9340652 L72.2952349,17.1145111 L76.9553459,17.1145111 C75.5051868,16.0760206 74.3663041,14.9340652 73.5378764,13.6886449 L68.3597928,13.6886449 C67.3920163,15.073482 66.2528598,16.2154374 64.9420496,17.1145111 L69.6027081,17.1145111 L69.6027081,14.9340652 L72.2952349,14.9340652 Z M59.8677248,3.51451115 L59.8677248,1.85358491 L63.4921643,1.85358491 L63.4921643,0.0889193825 L66.1846911,0.0889193825 L66.1846911,1.85358491 L75.7124306,1.85358491 L75.7124306,0.0889193825 L78.4052312,0.0889193825 L78.4052312,1.85358491 L82.1331558,1.85358491 L82.1331558,3.51451115 L78.4052312,3.51451115 L78.4052312,12.0271698 L82.8578246,12.0271698 L82.8578246,13.6886449 L76.5408583,13.6886449 C77.7834998,15.488988 79.8548428,16.9070326 82.7543396,17.9444254 L82.7543396,19.5018868 C80.6137329,18.8794511 78.8188975,18.1881304 77.3695597,17.4254545 L77.3695597,18.6716981 L72.2952349,18.6716981 L72.2952349,21.4743053 L81.3044543,21.4743053 L81.3044543,22.9274786 L60.6964262,22.9274786 L60.6964262,21.4743053 L69.6027081,21.4743053 L69.6027081,18.6716981 L64.5281095,18.6716981 L64.5281095,17.4254545 C63.0782242,18.1881304 61.2822937,18.8794511 59.1430559,19.5018868 L59.1430559,17.9444254 C61.9730152,16.9070326 64.0443581,15.488988 65.3565372,13.6886449 L59.1430559,13.6886449 L59.1430559,12.0271698 L63.4921643,12.0271698 L63.4921643,3.51451115 L59.8677248,3.51451115 Z" id="Fill-17"></path>
                        <path d="M93.5873045,9.53569811 L93.5873045,7.77103259 L98.7651143,7.77103259 L98.7651143,4.34489194 L101.457915,4.34489194 L101.457915,7.77103259 L106.738936,7.77103259 L106.738936,9.53569811 L101.457915,9.53569811 C101.525536,13.0658525 103.32174,16.0419074 106.842421,18.4641372 L106.842421,20.2279794 C103.52871,18.7067444 101.284345,16.6991973 100.111515,14.2075334 C99.0060318,16.6991973 96.7619401,18.7067444 93.3800607,20.2279794 L93.3800607,18.3598491 C96.9010152,16.0762127 98.695303,13.135012 98.7651143,9.53569811 L93.5873045,9.53569811 Z M92.1374192,21.474223 L106.221237,21.474223 C107.532047,21.5425592 108.153505,20.9906552 108.085336,19.8138456 L108.085336,3.20293654 L92.1374192,3.20293654 L92.1374192,21.474223 Z M89.4446186,23.3429022 L89.4446186,1.23079245 L110.881348,1.23079245 L110.881348,19.7095575 C110.949791,22.2009468 109.706875,23.4112384 107.153424,23.3429022 L89.4446186,23.3429022 Z" id="Fill-19"></path>
                    </g>
                </g>
            </g>
        </g>
    </g>
</svg>