<?xml version="1.0" encoding="UTF-8"?>
<svg width="131px" height="38px" viewBox="0 0 131 38" version="1.1" xmlns="http://www.w3.org/2000/svg" xmlns:xlink="http://www.w3.org/1999/xlink">
    <!-- Generator: Sketch 48.2 (47327) - http://www.bohemiancoding.com/sketch -->
    <title>彩虹星愿</title>
    <desc>Created with Sketch.</desc>
    <defs></defs>
    <g id="Web-网站（12-28迭代）" stroke="none" stroke-width="1" fill="none" fill-rule="evenodd" transform="translate(-298.000000, -6863.000000)">
        <g id="特别鸣谢" transform="translate(0.000000, 6544.000000)">
            <g id="彩虹星愿" transform="translate(298.000000, 319.000000)">
                <g id="icon-copy-10">
                    <path d="M23.3965738,34.5780007 L24.4432272,34.4272193 L24.9003821,35.3807536 C25.3058606,36.2265014 25.8023476,36.56 26.5744537,36.56 C27.9529141,36.56 29.2181225,35.3850313 30.34848,32.7035207 L30.531561,32.2692037 L30.9360116,32.0271922 C35.1956372,29.4783564 37.56,25.4272328 37.56,20.2143421 C37.56,17.3519811 36.8480542,14.477998 35.5092473,11.8356395 L35.1726104,11.1712304 L35.5203265,10.5125519 C36.1149044,9.38624307 36.2140534,7.87306629 35.7070657,6.47090661 C35.0000496,4.5155346 31.3037487,3.05748036 28.8717804,3.77551711 L28.2872322,3.94810453 L27.7564038,3.64859786 C25.200315,2.20638866 22.388983,1.44 19.5,1.44 C16.6095185,1.44 13.7967723,2.20718626 11.2396529,3.65082347 L10.7074721,3.95126934 L10.121643,3.77723378 C7.69103668,3.05515985 3.98833279,4.51344543 3.28056126,6.47090661 C2.77218458,7.87690782 2.87336754,9.39448137 3.47188916,10.5212171 L3.82213544,11.1805668 L3.48511559,11.8467739 C2.14991981,14.4861349 1.44,17.3560473 1.44,20.2143421 C1.44,25.4272328 3.8043628,29.4783564 8.06398843,32.0271922 L8.46843904,32.2692037 L8.65151997,32.7035207 C9.78187747,35.3850313 11.0470859,36.56 12.4255463,36.56 C13.1976524,36.56 13.6941394,36.2265014 14.0996179,35.3807536 L14.5567728,34.4272193 L15.6034262,34.5780007 C16.85849,34.7588058 18.1622585,34.85 19.5,34.85 C20.8377415,34.85 22.14151,34.7588058 23.3965738,34.5780007 Z" id="Combined-Shape" stroke="#ADBDCC" stroke-width="2.88"></path>
                    <path d="M24.42375,18.2549205 C25.0698972,18.2549205 25.59375,17.7147223 25.59375,17.0484137 C25.59375,16.3821052 25.0698972,15.8419069 24.42375,15.8419069 L21.9545578,15.8419069 L24.2980999,12.5609236 C24.7555856,12.0891632 24.7555856,11.3255805 24.2980999,10.8538202 C23.8406142,10.3820599 23.1001362,10.3820599 22.6426506,10.8538202 L19.74375,14.5273605 L16.8450359,10.8538202 C16.3875502,10.3820599 15.6470722,10.3820599 15.1895865,10.8538202 C14.7321009,11.3255805 14.7321009,12.0891632 15.1895865,12.5609236 L17.5329422,15.8419069 L15.06375,15.8419069 C14.4177892,15.8419069 13.89375,16.3821052 13.89375,17.0484137 C13.89375,17.7147223 14.4177892,18.2549205 15.06375,18.2549205 L18.5703944,18.2549205 L18.5703944,20.6642816 L15.06375,20.6642816 C14.4177892,20.6642816 13.89375,21.2044798 13.89375,21.8707884 C13.89375,22.5370969 14.4177892,23.0772952 15.06375,23.0772952 L18.5703944,23.0772952 L18.5703944,26.2934932 C18.5703944,26.9596095 19.0942471,27.5 19.7403944,27.5 C20.3863552,27.5 20.9103944,26.9596095 20.9103944,26.2934932 L20.9103944,23.0772952 L24.4168523,23.0772952 C25.0628131,23.0772952 25.5868523,22.5370969 25.5868523,21.8707884 C25.5868523,21.2044798 25.0628131,20.6642816 24.4168523,20.6642816 L20.9172921,20.6642816 L20.9172921,18.2549205 L24.42375,18.2549205 Z" id="Fill-4" fill="#ADBDCC"></path>
                </g>
                <path d="M64.272,12.992 C64.1759995,13.8400042 64.0080012,14.7799948 63.768,15.812 C63.5279988,16.8440052 63.2440016,17.8879947 62.916,18.944 C62.5879984,20.0000053 62.228002,21.0159951 61.836,21.992 C61.443998,22.9680049 61.0560019,23.8159964 60.672,24.536 C60.4319988,24.9680022 60.1800013,25.2479994 59.916,25.376 C59.6519987,25.5040006 59.3520017,25.464001 59.016,25.256 C58.7919989,25.0959992 58.6680001,24.8880013 58.644,24.632 C58.6199999,24.3759987 58.7439986,24.0160023 59.016,23.552 C59.3360016,23.0399974 59.6639983,22.384004 60,21.584 C60.3360017,20.783996 60.6559985,19.9000048 60.96,18.932 C61.2640015,17.9639952 61.5439987,16.9480053 61.8,15.884 C62.0560013,14.8199947 62.2559993,13.7680052 62.4,12.728 C62.4800004,12.1679972 62.619999,11.8080008 62.82,11.648 C63.020001,11.4879992 63.2719985,11.4319998 63.576,11.48 C63.8800015,11.5280002 64.0919994,11.651999 64.212,11.852 C64.3320006,12.052001 64.3520004,12.4319972 64.272,12.992 Z M79.512,24.368 C79.6400006,24.8800026 79.6640004,25.2599988 79.584,25.508 C79.5039996,25.7560012 79.2800018,25.9119997 78.912,25.976 C78.5759983,26.0560004 78.308001,26.0240007 78.108,25.88 C77.907999,25.7359993 77.7440006,25.360003 77.616,24.752 C77.4559992,23.9679961 77.2520012,23.0680051 77.004,22.052 C76.7559988,21.0359949 76.4800015,19.9920054 76.176,18.92 C75.8719985,17.8479946 75.5640016,16.8000051 75.252,15.776 C74.9399984,14.7519949 74.6400014,13.840004 74.352,13.04 C74.2239994,12.6719982 74.1959996,12.3800011 74.268,12.164 C74.3400004,11.9479989 74.5119986,11.7760006 74.784,11.648 C75.0400013,11.5199994 75.2879988,11.5159994 75.528,11.636 C75.7680012,11.7560006 75.9519994,11.9999982 76.08,12.368 C76.3200012,13.0240033 76.5959984,13.8719948 76.908,14.912 C77.2200016,15.9520052 77.5399984,17.0399943 77.868,18.176 C78.1960016,19.3120057 78.5039986,20.4319945 78.792,21.536 C79.0800014,22.6400055 79.319999,23.5839961 79.512,24.368 Z M70.512,26.888 C70.512,27.3040021 70.4560006,27.6919982 70.344,28.052 C70.2319994,28.4120018 70.0520012,28.7199987 69.804,28.976 C69.5559988,29.2320013 69.232002,29.4319993 68.832,29.576 C68.431998,29.7200007 67.9440029,29.792 67.368,29.792 C66.359995,29.792 65.0800078,29.5440025 63.528,29.048 C63.1119979,28.9199994 62.8440006,28.7440011 62.724,28.52 C62.6039994,28.2959989 62.5999994,28.0320015 62.712,27.728 C62.8080005,27.4559986 62.9639989,27.2840004 63.18,27.212 C63.3960011,27.1399996 63.7119979,27.1679994 64.128,27.296 C64.8800038,27.5360012 65.5159974,27.7079995 66.036,27.812 C66.5560026,27.9160005 66.9999982,27.968 67.368,27.968 C67.8480024,27.968 68.1719992,27.8400013 68.34,27.584 C68.5080008,27.3279987 68.592,26.9520025 68.592,26.456 L68.592,8.84 C68.592,8.50399832 68.6799991,8.24800088 68.856,8.072 C69.0320009,7.89599912 69.2719985,7.808 69.576,7.808 C69.8480014,7.808 70.0719991,7.89599912 70.248,8.072 C70.4240009,8.24800088 70.512,8.50399832 70.512,8.84 L70.512,26.888 Z M103.48,20.504 C102.871997,21.2240036 102.272003,21.879997 101.68,22.472 C101.087997,23.064003 100.480003,23.6239974 99.856,24.152 C100.240002,24.9840042 100.679998,25.7519965 101.176,26.456 C101.592002,27.064003 101.959998,27.5119986 102.28,27.8 C102.600002,28.0880014 102.847999,28.232 103.024,28.232 C103.12,28.232 103.208,28.1760006 103.288,28.064 C103.368,27.9519994 103.432,27.7560014 103.48,27.476 C103.528,27.1959986 103.564,26.8160024 103.588,26.336 C103.612,25.8559976 103.624,25.2560036 103.624,24.536 C103.624,23.943997 103.699999,23.5600009 103.852,23.384 C104.004001,23.2079991 104.263998,23.12 104.632,23.12 C104.936002,23.12 105.151999,23.2119991 105.28,23.396 C105.408001,23.5800009 105.472,23.967997 105.472,24.56 C105.472,25.6000052 105.420001,26.4799964 105.316,27.2 C105.211999,27.9200036 105.060001,28.5079977 104.86,28.964 C104.659999,29.4200023 104.416001,29.751999 104.128,29.96 C103.839999,30.168001 103.512002,30.272 103.144,30.272 C102.663998,30.272 102.152003,30.072002 101.608,29.672 C101.063997,29.271998 100.432004,28.5920048 99.712,27.632 C99.2159975,26.9279965 98.768002,26.1600042 98.368,25.328 C97.4559954,25.9840033 96.4840052,26.5919972 95.452,27.152 C94.4199948,27.7120028 93.2560065,28.2719972 91.96,28.832 C91.4959977,29.040001 91.1400012,29.1080004 90.892,29.036 C90.6439988,28.9639996 90.4640006,28.7680016 90.352,28.448 C90.159999,27.9039973 90.5039956,27.4560018 91.384,27.104 C92.6640064,26.5759974 93.8159949,26.0240029 94.84,25.448 C95.8640051,24.8719971 96.8079957,24.280003 97.672,23.672 C97.4319988,22.9999966 97.2040011,22.2840038 96.988,21.524 C96.7719989,20.7639962 96.568001,19.9600042 96.376,19.112 L92.512,19.904 C91.7599962,20.096001 91.3280006,19.8400035 91.216,19.136 C91.1359996,18.5599971 91.4399966,18.2000007 92.128,18.056 L95.992,17.288 C95.8799994,16.7759974 95.7800004,16.2440028 95.692,15.692 C95.6039996,15.1399972 95.5200004,14.5840028 95.44,14.024 L92.776,14.456 C92.3599979,14.5200003 92.056001,14.4800007 91.864,14.336 C91.671999,14.1919993 91.5520002,13.9520017 91.504,13.616 C91.4719998,13.3279986 91.5439991,13.0920009 91.72,12.908 C91.8960009,12.7239991 92.1439984,12.6080002 92.464,12.56 L95.176,12.152 C95.0959996,11.543997 95.0240003,10.9240032 94.96,10.292 C94.8959997,9.65999684 94.8320003,9.00800336 94.768,8.336 C94.768,7.98399824 94.8239994,7.73600072 94.936,7.592 C95.0480006,7.44799928 95.2239988,7.3360004 95.464,7.256 C95.8160018,7.1759996 96.087999,7.22799908 96.28,7.412 C96.472001,7.59600092 96.5999997,7.99199696 96.664,8.6 C96.7120002,9.19200296 96.7639997,9.75999728 96.82,10.304 C96.8760003,10.8480027 96.9359997,11.3759974 97,11.888 L101.416,11.216 C101.352,11.1839998 101.288,11.1480002 101.224,11.108 C101.16,11.0679998 101.096,11.0160003 101.032,10.952 C100.615998,10.6319984 100.252002,10.368001 99.94,10.16 C99.6279984,9.95199896 99.272002,9.72000128 98.872,9.464 C98.2319968,9.04799792 98.0479986,8.6000024 98.32,8.12 C98.4960009,7.84799864 98.6999988,7.68800024 98.932,7.64 C99.1640012,7.59199976 99.4479983,7.67999888 99.784,7.904 C100.072001,8.08000088 100.311999,8.2279994 100.504,8.348 C100.696001,8.4680006 100.871999,8.58399944 101.032,8.696 C101.192001,8.80800056 101.355999,8.91999944 101.524,9.032 C101.692001,9.14400056 101.887999,9.2799992 102.112,9.44 C102.496002,9.71200136 102.72,9.95599892 102.784,10.172 C102.848,10.3880011 102.776001,10.6239987 102.568,10.88 C102.536,10.9280002 102.48,10.9919996 102.4,11.072 L103.384,10.904 C103.752002,10.8879999 104.015999,10.9279995 104.176,11.024 C104.336001,11.1200005 104.44,11.3279984 104.488,11.648 C104.552,12.2240029 104.264003,12.5599995 103.624,12.656 L97.24,13.712 C97.3200004,14.320003 97.4039996,14.8879974 97.492,15.416 C97.5800004,15.9440026 97.6639996,16.4559975 97.744,16.952 L103.792,15.728 C104.160002,15.6639997 104.427999,15.6999993 104.596,15.836 C104.764001,15.9720007 104.88,16.1839986 104.944,16.472 C104.976,16.7440014 104.924001,16.975999 104.788,17.168 C104.651999,17.360001 104.408002,17.4879997 104.056,17.552 L98.128,18.752 C98.4320015,20.2080073 98.7759981,21.4559948 99.16,22.496 C99.7360029,21.9999975 100.259998,21.4960026 100.732,20.984 C101.204002,20.4719974 101.639998,19.9520026 102.04,19.424 C102.328001,19.0559982 102.591999,18.8200005 102.832,18.716 C103.072001,18.6119995 103.343998,18.663999 103.648,18.872 C103.904001,19.080001 104.02,19.3079988 103.996,19.556 C103.972,19.8040012 103.800002,20.1199981 103.48,20.504 Z M88.048,8.576 C87.9679996,8.83200128 87.8920004,9.08399876 87.82,9.332 C87.7479996,9.58000124 87.6720004,9.83199872 87.592,10.088 L90.688,10.088 C90.9920015,10.088 91.2359991,10.1599993 91.42,10.304 C91.6040009,10.4480007 91.696,10.6559986 91.696,10.928 C91.696,11.2160014 91.6040009,11.4319993 91.42,11.576 C91.2359991,11.7200007 90.9920015,11.792 90.688,11.792 L86.968,11.792 C86.7919991,12.2400022 86.604001,12.6799978 86.404,13.112 C86.203999,13.5440022 85.9920011,13.9679979 85.768,14.384 L90.016,14.384 C90.7040034,14.384 91.048,14.6639972 91.048,15.224 C91.048,15.5440016 90.9560009,15.7639994 90.772,15.884 C90.5879991,16.0040006 90.3360016,16.064 90.016,16.064 L87.928,16.064 L87.928,19.832 L90.4,19.832 C90.7200016,19.832 90.9959988,19.8719996 91.228,19.952 C91.4600012,20.0320004 91.576,20.2799979 91.576,20.696 C91.576,21.0640018 91.4600012,21.2959995 91.228,21.392 C90.9959988,21.4880005 90.7200016,21.536 90.4,21.536 L87.928,21.536 L87.928,26.6 C87.928,26.7600008 87.9439998,26.844 87.976,26.852 C88.0080002,26.86 88.0799994,26.8080006 88.192,26.696 C88.2880005,26.5999995 88.4199992,26.4760008 88.588,26.324 C88.7560008,26.1719992 88.935999,26.0080009 89.128,25.832 C89.320001,25.6559991 89.4959992,25.4920008 89.656,25.34 C89.8160008,25.1879992 89.9359996,25.0640005 90.016,24.968 C90.2400011,24.6799986 90.4719988,24.4840005 90.712,24.38 C90.9520012,24.2759995 91.1999987,24.2959993 91.456,24.44 C91.7600015,24.6160009 91.9439997,24.8399986 92.008,25.112 C92.0720003,25.3840014 91.9760013,25.6639986 91.72,25.952 C91.4479986,26.2400014 91.1440017,26.5439984 90.808,26.864 C90.4719983,27.1840016 90.1440016,27.4879986 89.824,27.776 C89.5039984,28.0640014 89.2040014,28.3199989 88.924,28.544 C88.6439986,28.7680011 88.4240008,28.9359994 88.264,29.048 C87.5119962,29.5440025 86.9600018,29.6440015 86.608,29.348 C86.2559982,29.0519985 86.0879999,28.4320047 86.104,27.488 L86.104,21.536 L83.872,21.536 C83.5039982,21.536 83.2120011,21.4880005 82.996,21.392 C82.7799989,21.2959995 82.672,21.0640018 82.672,20.696 C82.672,20.2799979 82.7799989,20.0320004 82.996,19.952 C83.2120011,19.8719996 83.5039982,19.832 83.872,19.832 L86.104,19.832 L86.104,16.064 L84.88,16.064 C84.7999996,16.1920006 84.7280003,16.3199994 84.664,16.448 C84.5999997,16.5760006 84.5280004,16.7039994 84.448,16.832 C84.0159978,17.5680037 83.496003,17.7680017 82.888,17.432 C82.6159986,17.2719992 82.4680001,17.0680012 82.444,16.82 C82.4199999,16.5719988 82.4959991,16.3040014 82.672,16.016 C83.0880021,15.3279966 83.4679983,14.6640032 83.812,14.024 C84.1560017,13.3839968 84.4639986,12.7480032 84.736,12.116 C85.0080014,11.4839968 85.2519989,10.8520032 85.468,10.22 C85.6840011,9.58799684 85.8799991,8.92800344 86.056,8.24 C86.1360004,7.85599808 86.2679991,7.57200092 86.452,7.388 C86.6360009,7.20399908 86.9439978,7.1519996 87.376,7.232 C87.7440018,7.29600032 87.9759995,7.43599892 88.072,7.652 C88.1680005,7.86800108 88.1600006,8.175998 88.048,8.576 Z M129.32,28.112 C130.232005,28.3840014 130.616001,28.7919973 130.472,29.336 C130.392,29.7200019 130.212001,29.9439997 129.932,30.008 C129.651999,30.0720003 129.280002,30.0320007 128.816,29.888 C127.535994,29.487998 126.396005,29.0360025 125.396,28.532 C124.395995,28.0279975 123.492004,27.4320034 122.684,26.744 C121.875996,26.0559966 121.132003,25.2600045 120.452,24.356 C119.771997,23.4519955 119.112003,22.400006 118.472,21.2 C117.735996,21.7760029 117.036003,22.2959977 116.372,22.76 C115.707997,23.2240023 115.024004,23.655998 114.32,24.056 L114.32,27.776 C114.32,28.0480014 114.447999,28.1520003 114.704,28.088 C115.696005,27.8639989 116.579996,27.656001 117.356,27.464 C118.132004,27.271999 118.791997,27.0880009 119.336,26.912 C119.944003,26.719999 120.371999,26.6479998 120.62,26.696 C120.868001,26.7440002 121.055999,26.9279984 121.184,27.248 C121.312001,27.5680016 121.284001,27.8359989 121.1,28.052 C120.915999,28.2680011 120.480003,28.4639991 119.792,28.64 C118.943996,28.8640011 118.088004,29.079999 117.224,29.288 C116.359996,29.496001 115.384005,29.7119989 114.296,29.936 C113.607997,30.0800007 113.144001,30.0280012 112.904,29.78 C112.663999,29.5319988 112.544,29.0320038 112.544,28.28 L112.544,24.992 C112.015997,25.2480013 111.468003,25.4919988 110.9,25.724 C110.331997,25.9560012 109.720003,26.1999987 109.064,26.456 C108.599998,26.6160008 108.264001,26.6440005 108.056,26.54 C107.847999,26.4359995 107.712,26.2400014 107.648,25.952 C107.584,25.5999982 107.627999,25.3360009 107.78,25.16 C107.932001,24.9839991 108.231998,24.8160008 108.68,24.656 C109.400004,24.3999987 110.083997,24.1440013 110.732,23.888 C111.380003,23.6319987 111.995997,23.3560015 112.58,23.06 C113.164003,22.7639985 113.731997,22.4520016 114.284,22.124 C114.836003,21.7959984 115.391997,21.432002 115.952,21.032 L108.68,21.032 C108.327998,21.032 108.080001,20.9480008 107.936,20.78 C107.791999,20.6119992 107.72,20.4160011 107.72,20.192 C107.72,19.9679989 107.791999,19.7760008 107.936,19.616 C108.080001,19.4559992 108.327998,19.376 108.68,19.376 L117.944,19.376 C117.815999,19.167999 117.696001,18.9760009 117.584,18.8 C117.471999,18.6239991 117.344001,18.4240011 117.2,18.2 C117.055999,17.9599988 116.988,17.7240012 116.996,17.492 C117.004,17.2599988 117.143999,17.0560009 117.416,16.88 C117.656001,16.7359993 117.903999,16.6959997 118.16,16.76 C118.416001,16.8240003 118.623999,17.0079985 118.784,17.312 C118.960001,17.6320016 119.123999,17.9599983 119.276,18.296 C119.428001,18.6320017 119.583999,18.9919981 119.744,19.376 L129.2,19.376 C129.536002,19.376 129.783999,19.4559992 129.944,19.616 C130.104001,19.7760008 130.184,19.9679989 130.184,20.192 C130.184,20.4160011 130.104001,20.6119992 129.944,20.78 C129.783999,20.9480008 129.536002,21.032 129.2,21.032 L120.32,21.032 C121.072004,22.3760067 121.951995,23.551995 122.96,24.56 C123.712004,24.1439979 124.447996,23.7120022 125.168,23.264 C125.888004,22.8159978 126.511997,22.3840021 127.04,21.968 C127.264001,21.7919991 127.503999,21.6840002 127.76,21.644 C128.016001,21.6039998 128.255999,21.7119987 128.48,21.968 C128.704001,22.2080012 128.776,22.4519988 128.696,22.7 C128.616,22.9480012 128.432001,23.175999 128.144,23.384 C127.887999,23.5600009 127.600002,23.751999 127.28,23.96 C126.959998,24.168001 126.632002,24.3799989 126.296,24.596 C125.959998,24.8120011 125.620002,25.015999 125.276,25.208 C124.931998,25.400001 124.608002,25.5759992 124.304,25.736 C125.728007,26.8240054 127.39999,27.6159975 129.32,28.112 Z M123.344,16.808 C122.783997,16.2959974 122.280002,15.7520029 121.832,15.176 C121.383998,14.5999971 120.976002,14.008003 120.608,13.4 L114.92,14.048 C114.583998,14.0960002 114.332001,14.0600006 114.164,13.94 C113.995999,13.8199994 113.888,13.6240014 113.84,13.352 C113.744,12.743997 114.047996,12.3920005 114.752,12.296 L119.696,11.768 C119.471999,11.2879976 119.252001,10.8000025 119.036,10.304 C118.819999,9.80799752 118.624001,9.30400256 118.448,8.792 C118.319999,8.43999824 118.268,8.14800116 118.292,7.916 C118.316,7.68399884 118.471999,7.51200056 118.76,7.4 C119.032001,7.27199936 119.299999,7.2679994 119.564,7.388 C119.828001,7.5080006 120.047999,7.79199776 120.224,8.24 C120.448001,8.84800304 120.675999,9.42799724 120.908,9.98 C121.140001,10.5320028 121.391999,11.0559975 121.664,11.552 L128.912,10.736 C129.632004,10.6879998 130.016,10.9519971 130.064,11.528 C130.096,11.8000014 130.040001,12.0079993 129.896,12.152 C129.751999,12.2960007 129.488002,12.3839998 129.104,12.416 L122.624,13.16 C123.120002,13.9280038 123.679997,14.615997 124.304,15.224 C125.008004,15.9280035 125.587998,16.4359984 126.044,16.748 C126.500002,17.0600016 126.875999,17.216 127.172,17.216 C127.468001,17.216 127.695999,17.0800014 127.856,16.808 C128.016001,16.5359986 128.144,16.1600024 128.24,15.68 C128.352001,15.1839975 128.511999,14.8120012 128.72,14.564 C128.928001,14.3159988 129.191998,14.2239997 129.512,14.288 C129.832002,14.3680004 130.043999,14.5479986 130.148,14.828 C130.252001,15.1080014 130.224001,15.5359971 130.064,16.112 C129.887999,16.7360031 129.712001,17.2399981 129.536,17.624 C129.359999,18.0080019 129.168001,18.3079989 128.96,18.524 C128.751999,18.7400011 128.528001,18.8839996 128.288,18.956 C128.047999,19.0280004 127.784001,19.064 127.496,19.064 C126.983997,19.064 126.376004,18.8920017 125.672,18.548 C124.967996,18.2039983 124.192004,17.6240041 123.344,16.808 Z M114.728,7.544 C114.968001,7.76800112 115.072,8.00399876 115.04,8.252 C115.008,8.50000124 114.880001,8.75999864 114.656,9.032 C114.287998,9.46400216 113.956001,9.85599824 113.66,10.208 C113.363999,10.5600018 113.072001,10.8959984 112.784,11.216 L112.784,17.648 C112.784,17.9040013 112.708001,18.131999 112.556,18.332 C112.403999,18.532001 112.192001,18.632 111.92,18.632 C111.647999,18.632 111.424001,18.532001 111.248,18.332 C111.071999,18.131999 110.984,17.9040013 110.984,17.648 L110.984,12.944 C110.503998,13.3600021 109.976003,13.7919978 109.4,14.24 C108.983998,14.5760017 108.636001,14.744 108.356,14.744 C108.075999,14.744 107.848001,14.6160013 107.672,14.36 C107.479999,14.0719986 107.439999,13.8120012 107.552,13.58 C107.664001,13.3479988 107.935998,13.0800015 108.368,12.776 C108.752002,12.4879986 109.159998,12.1600018 109.592,11.792 C110.024002,11.4239982 110.447998,11.0320021 110.864,10.616 C111.280002,10.1999979 111.679998,9.77600216 112.064,9.344 C112.448002,8.91199784 112.783999,8.48800208 113.072,8.072 C113.328001,7.70399816 113.611998,7.47200048 113.924,7.376 C114.236002,7.27999952 114.503999,7.33599896 114.728,7.544 Z M126.488,10.496 C126.343999,10.7200011 126.156001,10.8599997 125.924,10.916 C125.691999,10.9720003 125.416002,10.8720013 125.096,10.616 C124.759998,10.3439986 124.464001,10.1160009 124.208,9.932 C123.951999,9.74799908 123.640002,9.52000136 123.272,9.248 C122.967998,9.07199912 122.764001,8.87200112 122.66,8.648 C122.555999,8.42399888 122.567999,8.20000112 122.696,7.976 C122.872001,7.67199848 123.067999,7.50400016 123.284,7.472 C123.500001,7.43999984 123.791998,7.53599888 124.16,7.76 C124.528002,8.0000012 124.847999,8.22399896 125.12,8.432 C125.392001,8.64000104 125.711998,8.87999864 126.08,9.152 C126.656003,9.58400216 126.792002,10.0319977 126.488,10.496 Z" id="小钱袋" stroke="#A3B1BF" stroke-width="0.2" fill="#A3B1BF"></path>
            </g>
        </g>
    </g>
</svg>